SplineFontDB: 3.2
FontName: sachacHand
FullName: sachacHand
FamilyName: sachacFonts
Weight: Regular

StartChar: H
Encoding: 72 72 0
Width: 370
VWidth: 0
Flags: W
HStem: 5 21G<44.5 53.5> 344 16<58.3289 173.501 176.594 305.531> 350 18<82.4986 305.531> 650 20G<52.5 60.5>
VStem: 39 21<5.61914 208.281 588.749 659.246> 46 14<22.5646 344 362.328 631.156> 310 15<154.188 349.531 366.235 536.578 538.313 644.281> 315 15<255.986 343.782 383.47 652.163>
LayerCount: 2
Back
Fore
SplineSet
276 344 m 0xd2
 249 344 225 350 196 350 c 0xb2
 150 350 104 345 58 344 c 1
 58 298 58 252 61 206 c 0
 62 185 63 163 63 141 c 0
 63 116 63 90 60 66 c 0
 59 60 59 5 48 5 c 0
 41 5 39 13 39 22 c 0xda
 39 34 42 49 43 54 c 0
 45 84 46 114 46 144 c 2
 46 518 l 2
 46 541 47 565 47 588 c 0
 47 604 47 619 45 634 c 0
 45 638 44 642 44 646 c 0
 44 657 47 668 58 670 c 1
 63 660 64 646 64 632 c 0
 64 614 62 596 62 582 c 0
 62 554 62 526 62 498 c 0
 62 470 62 442 60 414 c 2
 60 384 l 2
 60 376 60 369 58 362 c 1
 65 361 73 360 81 360 c 0xd4
 113 360 143 368 175 368 c 0xb4
 209 368 243 362 276 360 c 0
 277 360 278 360 279 360 c 0
 288 360 296 364 305 364 c 0
 306 364 307 364 308 364 c 2
 310 366 l 1
 308 371 308 377 308 383 c 0
 308 393 309 405 310 414 c 0xd6
 311 446 312 478 314 510 c 0
 314 519 315 528 315 537 c 0
 315 565 313 594 312 622 c 0
 312 627 309 636 309 644 c 0
 309 650 311 655 316 655 c 0
 327 656 327 637 328 630 c 0
 330 602 330 572 330 544 c 0xd1
 330 480 326 416 325 352 c 2
 325 274 l 2
 325 241 324 208 321 175 c 0
 317 138 316 101 311 64 c 0
 310 58 306 0 296 0 c 0
 290 0 289 7 289 17 c 0
 289 56 298 75 300 110 c 0
 303 165 307 219 308 274 c 0
 309 287 310 302 310 317 c 0
 310 329 309 340 306 350 c 1xb2
 296 345 286 344 276 344 c 0xd2
EndSplineSet
Validated: 1
EndChar

StartChar: e
Encoding: 101 101 1
Width: 381
VWidth: 0
Flags: W
HStem: 4 16<144.152 262.655> 242 20<236.343 323.819> 352 17<173.67 263.087>
VStem: 41 16<118.955 237.896> 324 18<260.282 300.468>
LayerCount: 2
Back
Fore
SplineSet
324 262 m 1
 320 277 323 290 313 304 c 0
 289 338 255 352 220 352 c 0
 154 352 84 301 65 238 c 0
 60 221 57 200 57 179 c 0
 57 131 71 78 101 50 c 0
 119 33 143 27 167 23 c 0
 178 21 190 20 202 20 c 0
 235 20 268 27 298 40 c 0
 301 41 316 49 324 49 c 0
 328 49 330 48 330 44 c 2
 330 42 l 2
 329 36 321 33 316 30 c 0
 283 14 241 4 194 4 c 0
 145 4 97 17 72 60 c 0
 52 94 41 139 41 184 c 0
 41 226 51 267 75 298 c 0
 107 339 164 364 215 369 c 0
 218 369 221 369 224 369 c 0
 276 369 342 326 342 271 c 0
 342 265 341 258 339 252 c 0
 337 243 319 242 304 242 c 2
 288 242 l 2
 236 240 182 229 131 219 c 0
 125 218 100 210 85 210 c 0
 78 210 74 212 74 216 c 0
 74 230 121 234 132 236 c 0
 174 244 217 250 259 255 c 0
 280 258 303 257 324 262 c 1
EndSplineSet
Validated: 1
EndChar

StartChar: n
Encoding: 110 110 2
Width: 309
VWidth: 0
Flags: HWO
HStem: 353 15<137.969 186.426>
VStem: 27 14<178.423 352.953> 29 17<0.127197 363.894> 269 18<-0.602535 197.194>
LayerCount: 2
Back
Fore
SplineSet
276 -18 m 4xd0
 261 -18 269 56 269 71 c 4
 269 79 270.134765625 87.0009765625 270 94 c 4
 269 146 261.412109375 241.190429688 251 292 c 4
 246.711914062 312.92578125 238.997070312 334.450195312 208 345 c 4
 205.005859375 346.018554688 165 348 162 348 c 4
 143 348 124 332 111 321 c 4
 69 284 54 167 51 113 c 4
 50 94 49 76 49 57 c 4
 49 56 46 -4 46 -5 c 4
 46 -10 45 -15 40 -17 c 6
 38 -17 l 6
 30 -17 29 39 29 71 c 4
 29 83 29 92 29 98 c 6
 29 109 l 6xb0
 28 152 27 224 27 266 c 6
 27 323 l 6xd0
 27 338 28 357 37 359 c 4
 38 359 38 360 39 360 c 4
 44 360 47 353 47 348 c 4
 47 347 46 346 46 345 c 4xb0
 44 322 43 300 43 277 c 4
 43 263 41 218 41 203 c 4
 41 192 42 182 45 173 c 5
 49 216 75 311 101 335 c 4
 115 348 139 363 162 363 c 4
 185 363 236 356 250 331 c 4
 273 290 279 181 283 135 c 4
 285 113 287 91 287 69 c 4
 287 65 284 3 284 -2 c 4
 284 -10 282 -18 276 -18 c 4xd0
EndSplineSet
EndChar

StartChar: A
Encoding: 65 65 3
Width: 482
VWidth: 0
Flags: W
HStem: 4 16<139.793 220.956> 637 15<257.86 332.063>
VStem: 40 15<168.491 323.537> 406 12<216.134 404.047> 418 21<463.979 560.818>
LayerCount: 2
Back
Fore
SplineSet
291 637 m 0xe8
 238 637 199 583 169 548 c 0
 97 464 55 356 55 246 c 0
 55 214 59 182 66 150 c 0
 79 94 102 20 176 20 c 0
 232 20 274 50 301 90 c 0
 354 170 389 279 402 374 c 0
 405 397 406 421 406 444 c 0xf0
 406 471 418 501 418 527 c 0
 418 592 348 637 291 637 c 0xe8
438 501 m 0
 438 447 417 400 417 344 c 0
 417 332 418 320 418 307 c 0
 418 256 423 203 435 158 c 0
 449 108 478 54 521 24 c 0
 525 21 553 9 553 0 c 0
 553 -11 531 -2 527 0 c 0
 459 36 406 129 406 213 c 2
 406 253 l 2
 406 271 406 289 401 306 c 1
 401 250 368 189 346 138 c 0
 339 123 330 108 322 94 c 0
 294 45 237 4 174 4 c 0
 94 4 65 75 52 135 c 0
 44 171 40 208 40 244 c 0
 40 352 75 458 145 544 c 0
 183 591 230 652 295 652 c 0
 344 652 384 627 406 598 c 0xf0
 418 582 432 558 438 539 c 0
 439 535 439 531 439 527 c 0xe8
 439 518 438 509 438 501 c 0
EndSplineSet
Validated: 1
EndChar

StartChar: M
Encoding: 77 77 4
Width: 604
VWidth: 0
Flags: W
HStem: 647 20G<512.5 528>
VStem: 40 42<620.344 662> 61 16<27.4695 411.516> 65 19<258.484 590 601.415 614.671 644 670.903> 531 16<261.713 568.332> 546 18<-9.88525 171.796>
LayerCount: 2
Back
Fore
SplineSet
277 318 m 1xc0
 304 376 339 432 376 484 c 0
 414 537 440 567 478 620 c 0
 486 632 504 667 521 667 c 2
 523 667 l 2
 533 665 531 648 532 640 c 0
 535 609 540 571 542 540 c 0
 545 492 545 474 547 426 c 0xc8
 550 342 557 258 557 174 c 0
 557 127 561 79 563 32 c 0
 563 29 564 21 564 13 c 0
 564 2 562 -10 554 -10 c 0
 548 -10 546 0 546 10 c 0x84
 546 17 547 24 547 27 c 0
 546 67 545 106 542 146 c 0
 535 240 532 337 531 432 c 0
 530 509 524 565 515 642 c 1
 433 537 361 444 298 322 c 0
 294 315 289 298 280 296 c 0
 272 294 265 306 261 310 c 0
 246 325 230 338 218 356 c 0
 194 393 175 434 152 472 c 0
 129 510 101 549 83 590 c 1
 81 590 l 1
 83 572 84 554 84 535 c 0x98
 84 495 80 453 79 414 c 0
 77 361 77 309 77 256 c 0
 77 183 77 111 77 38 c 0
 77 33 76 -4 63 11 c 0
 60 14 59 20 59 27 c 0
 59 37 61 48 61 54 c 2
 61 176 l 2xa0
 61 299 65 421 65 544 c 0x90
 65 557 68 575 68 591 c 0
 68 600 67 608 64 615 c 0
 59 625 40 642 40 655 c 0
 40 656 40 657 40 658 c 0xc0
 45 674 62 648 65 644 c 1x90
 66 651 63 676 77 671 c 0xa0
 82 669 84 662 84 653 c 0x90
 84 644 82 634 82 627 c 0
 82 625 83 622 83 621 c 0
 87 607 100 593 108 580 c 0
 149 511 185 439 228 372 c 0
 241 352 264 338 275 318 c 1
 277 318 l 1xc0
EndSplineSet
Validated: 1
EndChar

StartChar: Y
Encoding: 89 89 5
Width: 420
VWidth: 0
Flags: W
HStem: 8 13<164.202 233.143>
VStem: 40 16<544.536 664.945> 352 8<457 591> 366 14<189.075 385.022>
LayerCount: 2
Back
Fore
SplineSet
344 568 m 1
 341 527 323 481 305 444 c 0
 284 401 259 355 224 325 c 0
 179 286 136 302 105 350 c 0
 65 412 54 493 45 565 c 0
 42 591 41 617 40 643 c 0
 40 650 38 666 50 665 c 0
 58 664 55 652 56 646 c 0
 58 624 58 602 60 580 c 0
 65 510 78 427 115 366 c 0
 126 348 149 317 174 317 c 0
 177 317 179 317 182 318 c 0
 210 326 232 356 248 378 c 0
 294 443 317 518 335 594 c 0
 340 617 342 642 348 664 c 0
 350 671 359 683 366 673 c 0
 368 670 368 667 368 664 c 0
 368 654 363 642 362 634 c 0
 361 620 360 606 360 591 c 0
 360 573 361 554 362 538 c 0
 369 450 380 362 380 274 c 0
 380 213 373 146 343 92 c 0
 315 41 255 8 198 8 c 0
 156 8 114 26 89 68 c 0
 85 74 87 87 97 82 c 0
 122 70 135 39 162 28 c 0
 173 23 185 21 197 21 c 0
 252 21 313 66 334 110 c 0
 358 160 366 216 366 274 c 0
 366 336 357 400 352 457 c 0
 349 492 354 535 344 568 c 1
EndSplineSet
Validated: 33
EndChar

StartChar: eight
Encoding: 56 56 6
Width: 309
VWidth: 0
Flags: W
HStem: 9 14<144.17 222.864> 646 19<133.297 231.565>
VStem: 32 14<490.533 556.114> 36 17<76.2567 147.232> 235 42<599.095 634.716> 243 16<38.0143 117.143> 254 17<516.344 594.43>
LayerCount: 2
Back
Fore
SplineSet
184 9 m 0xc4
 122 9 36 34 36 108 c 0xd4
 36 163 80 224 107 263 c 0
 116 277 141 299 143 316 c 0
 144 324 133 335 128 341 c 0
 92 389 32 455 32 524 c 0
 32 543 36 563 48 583 c 0
 72 622 121 665 181 665 c 2
 194 665 l 2
 218 662 247 653 264 635 c 0
 269 629 277 619 277 610 c 0xe8
 277 605 274 601 266 599 c 1
 270 588 271 576 271 563 c 0xc2
 271 503 237 431 212 385 c 0
 203 371 196 355 186 341 c 0
 182 335 172 326 171 319 c 0
 170 313 178 304 182 299 c 0
 192 283 203 268 212 251 c 0
 236 204 248 151 255 100 c 0
 257 89 259 76 259 64 c 0
 259 53 257 42 252 32 c 0
 242 14 216 10 196 9 c 0
 192 9 188 9 184 9 c 0xc4
155 333 m 1
 159 333 l 1
 203 403 245 478 254 562 c 1
 254 566 l 2xe2
 254 588 235 607 235 627 c 0
 235 630 235 632 236 635 c 0
 217 642 199 646 181 646 c 0
 136 646 95 624 66 581 c 0
 55 564 46 544 46 524 c 0xe8
 46 521 46 518 47 515 c 0
 57 444 117 390 155 333 c 1
157 303 m 1
 132 272 109 239 90 205 c 0
 75 177 53 141 53 107 c 0
 53 74 72 62 93 49 c 0
 115 37 154 23 188 23 c 0
 204 23 220 26 232 35 c 0
 240 41 243 52 243 65 c 0xd4
 243 81 239 98 237 108 c 0
 225 175 206 253 157 303 c 1
EndSplineSet
Validated: 1
EndChar

StartChar: quotesingle
Encoding: 39 39 7
Width: 103
VWidth: 0
Flags: W
HStem: 483 190
VStem: 48 14<503.556 670.097>
LayerCount: 2
Back
Fore
SplineSet
42 659 m 0
 42 667 43 673 50 673 c 0
 61 673 61 642 61 636 c 0
 62 615 62 594 62 573 c 0
 62 555 62 537 60 520 c 0
 59 510 59 488 49 483 c 0
 33 475 42 507 43 512 c 0
 46 535 48 559 48 583 c 0
 48 597 47 612 46 626 c 0
 45 632 42 647 42 659 c 0
EndSplineSet
Validated: 1
EndChar

StartChar: numbersign
Encoding: 35 35 8
Width: 200
VWidth: 0
Flags: W
HStem: 270 20<77.3129 169.718> 280 20<323.375 440.474> 434 18<41.3337 125> 458 16<183.893 297 313.029 406.721>
VStem: 170 19<181.411 274 290 435.8 468 522.711> 179 17<156.198 272.682> 291 16<387.125 458 477.791 597.671> 305 22<141.647 281.531>
LayerCount: 2
Back
Fore
SplineSet
327 157 m 0x71
 327 148 326 141 318 141 c 0
 309 141 311 167 310 172 c 0
 308 196 305 224 305 250 c 0x71
 305 261 306 272 307 282 c 1
 189 274 l 1x7a
 197 246 194 210 196 180 c 0
 196 174 199 148 186 156 c 0
 179 160 179 178 179 186 c 0x74
 177 214 180 247 173 274 c 1
 150 269 125 271 101 270 c 0
 94 270 80 266 77 275 c 0
 74 285 90 286 96 286 c 0
 112 287 132 290 150 290 c 0
 157 290 164 289 170 288 c 1
 170 371 l 1
 165 452 l 1
 135 442 100 440 69 434 c 0
 62 433 38 426 40 440 c 0
 41 450 64 451 71 452 c 0
 103 458 135 462 167 468 c 1
 162 501 162 535 159 568 c 0
 158 574 153 601 167 598 c 0
 178 595 175 574 176 566 c 0
 180 533 180 501 183 468 c 1
 202 474 224 475 246 475 c 0
 264 475 281 474 297 474 c 1
 290 506 293 545 291 578 c 0
 291 583 296 612 307 597 c 0
 311 591 307 577 307 570 c 0xba
 308 549 311 529 311 508 c 2
 311 496 l 2
 311 479 314 473 331 473 c 0
 337 473 343 474 347 474 c 0
 371 473 410 475 430 458 c 0
 435 454 439 444 429 443 c 2
 428 443 l 2
 419 443 407 452 397 454 c 0
 369 458 341 458 313 458 c 1
 321 296 l 1
 334 300 349 300 364 300 c 2
 393 300 l 2
 401 300 409 300 416 301 c 0
 423 302 442 305 442 294 c 0
 442 284 423 285 416 285 c 0
 395 284 371 280 348 280 c 0
 339 280 331 281 323 282 c 1
 323 275 322 269 322 262 c 0
 322 234 325 205 326 178 c 0
 326 173 327 165 327 157 c 0x71
183 454 m 1
 189 290 l 1
 307 296 l 1xba
 297 458 l 1
 183 454 l 1
EndSplineSet
Validated: 1
EndChar

StartChar: less
Encoding: 60 60 9
Width: 319
VWidth: 0
Flags: W
VStem: 40 239
LayerCount: 2
Back
Fore
SplineSet
54 326 m 1
 116 296 176 257 232 218 c 0
 238 214 279 191 279 177 c 0
 279 166 264 173 260 176 c 0
 247 185 235 195 222 204 c 0
 179 234 134 262 88 287 c 0
 73 295 44 305 40 324 c 1
 40 328 l 2
 40 344 62 364 72 374 c 0
 109 414 145 454 179 496 c 0
 189 509 199 522 209 534 c 0
 212 538 217 544 223 540 c 0
 229 536 225 529 222 524 c 0
 213 510 201 497 191 484 c 0
 147 430 95 382 54 326 c 1
EndSplineSet
Validated: 1
EndChar

StartChar: O
Encoding: 79 79 10
Width: 485
VWidth: 0
Flags: W
HStem: 10 16<217.213 279.858> 653 16<161.656 274.379>
VStem: 40 16<205.167 356.037> 427 18<305.225 476.114>
LayerCount: 2
Back
Fore
SplineSet
124 652 m 0
 151 662 181 669 214 669 c 0
 229 669 246 667 262 664 c 0
 344 648 395 611 422 534 c 0
 438 489 445 443 445 396 c 0
 445 329 431 262 411 198 c 0
 389 127 348 26 264 11 c 0
 259 10 255 10 250 10 c 0
 213 10 177 33 149 53 c 0
 130 66 111 82 96 100 c 0
 55 150 40 209 40 271 c 0
 40 346 62 425 81 494 c 0
 93 537 109 560 133 598 c 0
 143 614 161 633 180 637 c 0
 186 638 204 638 198 627 c 0
 194 621 180 620 174 616 c 0
 161 607 150 594 142 580 c 0
 120 543 108 523 95 482 c 0
 75 418 56 347 56 277 c 0
 56 235 63 193 81 154 c 0
 103 105 152 66 199 42 c 0
 215 34 233 26 251 26 c 0
 254 26 258 26 261 27 c 0
 333 42 375 132 393 196 c 0
 411 261 427 330 427 397 c 0
 427 479 404 556 332 617 c 0
 302 642 259 653 218 653 c 0
 181 653 155 643 126 635 c 0
 121 633 112 631 109 637 c 0
 104 646 118 650 124 652 c 0
EndSplineSet
Validated: 1
EndChar

StartChar: b
Encoding: 98 98 11
Width: 343
VWidth: 0
Flags: W
HStem: 1 17<68.424 154.887> 356 15<157.205 209.483>
VStem: 40 19<365 640.648> 54 13<155.171 217.709 244.705 362> 288 16<128.922 234.265>
LayerCount: 2
Back
Fore
SplineSet
288 181 m 0xd8
 288 257 246 356 180 356 c 0
 123 356 76 250 69 195 c 0
 68 186 67 177 67 168 c 0
 67 145 70 122 70 101 c 0
 70 96 70 85 70 73 c 0
 70 55 70 34 68 21 c 1
 77 22 89 18 98 18 c 0
 99 18 101 18 103 18 c 0
 166 18 242 58 274 116 c 0
 284 133 288 156 288 181 c 0xd8
44 105 m 0
 44 147 54 186 54 229 c 0xd8
 54 255 51 282 50 307 c 0
 47 374 44 441 43 508 c 0
 43 542 43 576 42 610 c 0
 42 614 40 623 40 630 c 0
 40 636 41 641 47 641 c 0
 57 641 56 627 57 620 c 0
 59 596 59 572 59 548 c 0xe8
 59 484 64 420 65 356 c 0
 65 338 64 317 64 296 c 0
 64 277 65 259 69 244 c 1
 89 323 141 371 190 371 c 0
 229 371 266 341 286 272 c 0
 296 240 304 207 304 174 c 0
 304 148 299 123 284 100 c 0
 261 65 210 19 170 9 c 0
 150 4 129 1 108 1 c 0
 106 1 104 1 102 1 c 0
 88 1 72 1 61 6 c 0
 58 3 57 2 55 2 c 0
 46 2 45 31 45 51 c 0
 45 52 45 53 45 54 c 0
 45 61 45 67 45 72 c 0
 45 84 44 93 44 105 c 0
EndSplineSet
Validated: 1
EndChar

StartChar: r
Encoding: 114 114 12
Width: 309
VWidth: 0
Flags: HW
HStem: 346 17<154.603 230.47>
VStem: 23 20<4.14643 209.397 232.469 335.063>
LayerCount: 2
Back
Fore
SplineSet
41 232 m 1
 50 291 121 357 180 363 c 1
 190 363 l 2
 210 363 234 359 251 350 c 0
 258 346 269 341 270 332 c 0
 271 325 264 324 259 326 c 0
 234 337 213 346 190 346 c 0
 175 346 160 342 143 333 c 0
 51 285 43 185 43 94 c 2
 43 63 l 2
 43 36 41 3 32 3 c 0
 31 3 31 4 30 4 c 0
 24 7 25 18 24 24 c 0
 23 30 23 39 23 48 c 0
 23 67 24 89 24 102 c 0
 24 162 23 222 23 282 c 0
 23 286 22 326 22 338 c 0
 22 351 23 364 29 364 c 2
 31 364 l 2
 40 362 39 345 39 338 c 0
 39 335 39 332 39 329 c 0
 39 317 38 277 38 264 c 0
 38 253 39 242 41 232 c 1
EndSplineSet
EndChar

StartChar: B
Encoding: 66 66 13
Width: 442
VWidth: 0
Flags: W
HStem: 2 18<84.8321 188.587> 5 21G<68 75> 316 54<148.435 183.313> 378 18<265.438 312> 649 18<174.687 281.562>
VStem: 62 24<601.339 653.532> 62 14<52.1548 569.6> 333 19<506.935 600.982> 398 16<205.698 309.876>
LayerCount: 2
Back
Fore
SplineSet
82 601 m 1x7d80
 93 624 119 639 140 648 c 0
 166 659 200 667 233 667 c 0
 269 667 304 657 327 629 c 0
 345 607 352 583 352 558 c 0
 352 495 305 428 264 392 c 1
 276 394 287 396 299 396 c 2
 312 395 l 1
 382 384 414 326 414 260 c 0
 414 238 410 215 403 192 c 0
 368 85 246 2 136 2 c 0xbd80
 117 2 98 5 80 10 c 0
 78 7 76 5 74 5 c 0
 62 5 45 40 44 50 c 0
 43 64 55 60 59 52 c 1
 61 52 l 1
 60 149 56 247 56 345 c 0
 56 401 57 458 61 515 c 0
 62 527 62 539 62 551 c 2
 62 570 l 2x7b80
 62 588 62 606 64 624 c 0
 65 634 67 655 80 656 c 0
 85 656 86 651 86 644 c 0
 86 630 80 608 80 601 c 1
 82 601 l 1x7d80
125 316 m 0
 121 316 118 318 118 322 c 0
 118 337 179 365 191 370 c 0
 248 393 302 440 324 504 c 0
 329 520 333 538 333 556 c 0
 333 584 324 611 303 628 c 0
 284 643 258 649 234 649 c 0
 226 649 218 648 210 647 c 0
 167 641 114 627 89 583 c 0
 78 564 76 538 76 512 c 0
 76 497 77 483 77 470 c 0
 77 385 75 300 75 215 c 0
 75 173 76 131 76 89 c 2
 76 69 l 2xbb80
 76 56 77 41 81 33 c 0
 87 23 104 20 121 20 c 0
 135 20 150 22 158 23 c 0
 267 35 398 121 398 263 c 0
 398 319 366 378 297 378 c 0
 254 378 215 351 176 334 c 0
 168 332 139 316 125 316 c 0
EndSplineSet
Validated: 1
EndChar

StartChar: N
Encoding: 78 78 14
Width: 430
VWidth: 0
Flags: W
HStem: 647 20G<356 361.5>
VStem: 23 17<0.089447 244.474> 54 20<518.01 657.576> 342 18<45.1294 656.575>
LayerCount: 2
Back
Fore
SplineSet
363 55 m 0
 363 35 363 0 352 -0 c 0
 343 0 341 29 331 50 c 0
 258 199 174 319 112 473 c 0
 97 510 76 553 70 592 c 1
 68 592 l 1
 67 520 57 446 52 374 c 0
 44 277 39 176 39 72 c 0
 39 68 40 52 40 36 c 0
 40 18 39 0 32 -0 c 0
 23 0 23 31 23 48 c 0
 23 49 23 49 23 50 c 0
 23 54 23 58 23 59 c 0
 23 88 23 117 25 146 c 0
 34 269 39 395 46 518 c 0
 48 552 53 586 54 620 c 0
 54 630 48 639 49 648 c 0
 49 657 77 683 77 658 c 0
 77 649 74 637 74 629 c 0
 74 627 74 626 74 625 c 0
 84 584 103 541 119 502 c 0
 162 391 214 310 277 191 c 0
 298 152 329 86 348 44 c 1
 343 68 342 98 342 128 c 0
 342 164 344 202 344 231 c 0
 344 330 342 428 342 527 c 0
 342 545 341 563 341 582 c 0
 341 601 342 619 345 637 c 0
 346 643 352 667 360 667 c 0
 363 667 367 662 367 657 c 0
 367 648 361 635 360 628 c 0
 358 615 358 601 358 587 c 0
 358 574 358 561 358 548 c 0
 358 516 357 483 357 451 c 0
 357 360 360 269 360 177 c 0
 360 141 363 107 363 71 c 0
 363 68 363 62 363 55 c 0
EndSplineSet
Validated: 1
EndChar

StartChar: Z
Encoding: 90 90 15
Width: 465
VWidth: 0
Flags: W
HStem: 8 16<115.45 416.855> 634 16<70.1457 141.762> 646 17<121.146 402>
LayerCount: 2
Back
Fore
SplineSet
406 660 m 2xa0
 413 660 425 660 425 649 c 0
 425 636 404 619 397 610 c 0
 368 573 340 536 312 498 c 0
 213 362 148 182 70 34 c 1
 154 28 219 25 296 24 c 0
 329 24 361 26 394 26 c 0
 401 26 424 25 417 12 c 0
 414 6 405 10 400 10 c 0
 365 12 330 8 294 8 c 0
 257 8 220 9 183 9 c 0
 167 9 150 8 134 8 c 0
 116 8 98 14 81 14 c 0
 74 14 67 13 60 10 c 0
 53 7 40 1 40 13 c 0
 40 24 55 42 59 50 c 0
 80 87 101 146 120 184 c 0
 164 272 203 362 256 446 c 0
 300 516 355 577 402 644 c 1
 352 644 301 646 251 646 c 0xa0
 216 646 181 645 146 642 c 0
 126 640 107 634 88 634 c 0
 87 634 85 634 84 634 c 0
 78 634 65 638 70 647 c 0
 73 653 83 650 88 650 c 0xc0
 104 650 119 655 135 657 c 0
 171 662 208 663 246 663 c 0
 280 663 315 662 348 661 c 2
 406 660 l 2xa0
EndSplineSet
Validated: 33
EndChar

StartChar: nine
Encoding: 57 57 16
Width: 373
VWidth: 0
Flags: W
HStem: 325 18<87.5645 175.008> 649 17<159.743 240.609>
VStem: 32 16<385.05 487.193> 298 16<559.1 598.423> 305 16<2.51542 426.656> 315 32<511.197 611.697>
LayerCount: 2
Back
Fore
SplineSet
308 465 m 1xe8
 284 399 208 325 135 325 c 0
 110 325 79 331 60 349 c 0
 38 370 32 395 32 422 c 0
 32 437 34 453 36 469 c 0
 43 524 65 586 104 627 c 0
 129 652 166 666 202 666 c 0
 254 666 306 632 314 586 c 0
 315 580 317 556 304 559 c 0
 296 561 299 571 298 578 c 0
 291 620 242 649 203 649 c 0
 176 649 149 639 126 622 c 0
 100 602 85 570 72 537 c 0
 61 510 48 467 48 429 c 0
 48 391 61 357 101 347 c 0
 111 344 121 343 131 343 c 0
 217 343 290 441 312 518 c 0
 315 528 315 537 315 547 c 2
 315 569 l 2
 315 582 316 595 323 605 c 0
 333 618 347 615 347 597 c 0xf4
 347 590 345 583 344 578 c 0
 340 548 331 522 329 492 c 0
 322 410 321 328 321 246 c 2
 321 95 l 2xe8
 321 74 321 53 323 33 c 0
 323 30 325 23 325 17 c 0
 325 9 323 2 316 2 c 2
 315 2 l 2xe4
 304 3 307 20 307 28 c 0
 307 55 305 83 305 110 c 0
 305 164 303 218 303 272 c 0
 303 296 304 320 304 345 c 0
 305 373 311 405 311 436 c 0
 311 446 310 456 308 465 c 1xe8
EndSplineSet
Validated: 1
EndChar

StartChar: quoteright
Encoding: 8217 8217 17
Width: 130
VWidth: 0
Flags: W
HStem: 416 180
VStem: 73 17<495.002 595.699>
LayerCount: 2
Back
Fore
SplineSet
74 596 m 0
 89 604 90 565 90 558 c 0
 89 520 81 483 67 448 c 0
 63 439 59 419 49 416 c 0
 36 412 40 428 43 434 c 0
 60 470 71 510 73 550 c 0
 73 556 70 572 70 583 c 0
 70 589 71 594 74 596 c 0
EndSplineSet
Validated: 33
EndChar

StartChar: dollar
Encoding: 36 36 18
Width: 200
VWidth: 0
Flags: W
HStem: 520 28<265.333 299.141> 542 10<134 173 192.076 248.572>
VStem: 40 15<415.41 457.458> 175 15<455 535.863 554.986 638.515> 179 16<146.706 351.717 374.176 455> 245 20<441 530 552.071 640.228> 261 16<204 317.833 346.142 393.5> 266 19<81.7599 140 166.098 299> 350 16<213.312 266.755>
LayerCount: 2
Back
Fore
SplineSet
71 193 m 0xad80
 71 196 74 199 78 199 c 0
 87 199 99 185 105 181 c 0
 125 167 152 145 178 145 c 0
 181 145 184 145 187 146 c 0
 183 161 185 180 184 196 c 0
 183 229 181 263 181 296 c 0
 181 305 182 317 182 329 c 0
 182 338 182 346 179 352 c 0
 175 362 154 365 145 367 c 0
 105 377 40 384 40 435 c 0
 40 449 46 463 54 476 c 0
 80 516 126 546 173 552 c 1
 173 576 171 600 170 624 c 0
 170 630 169 647 180 641 c 0
 186 638 186 625 186 619 c 0
 187 598 186 575 191 554 c 1
 249 552 l 1x6d80
 247 560 245 578 245 597 c 0
 245 619 248 641 258 641 c 2
 259 641 l 2
 264 641 265 636 265 630 c 0
 265 623 263 613 263 608 c 0
 263 595 265 581 265 568 c 0
 265 561 265 554 263 548 c 1
 268 547 305 537 305 527 c 0
 305 524 300 520 296 520 c 0
 286 520 272 528 265 530 c 1
 270 487 271 443 273 400 c 2
 273 368 l 2
 273 358 273 349 276 342 c 0
 280 332 297 328 305 322 c 0
 332 303 364 280 366 244 c 2
 366 240 l 2
 366 209 342 181 317 165 c 0
 303 157 281 154 281 132 c 0
 281 121 285 108 285 97 c 0
 285 93 284 89 283 86 c 0
 279 78 270 79 268 88 c 0
 267 95 266 103 266 110 c 0
 266 120 267 130 267 140 c 1
 253 137 240 131 226 129 c 0
 215 127 203 131 203 114 c 0
 203 109 204 103 204 98 c 0
 204 91 202 85 196 85 c 2
 195 85 l 2
 188 86 187 93 187 101 c 2
 187 112 l 2
 187 117 187 122 184 125 c 0
 177 132 160 131 151 134 c 0
 129 142 109 156 91 170 c 0
 87 173 71 185 71 193 c 0xad80
208 542 m 0
 195 542 190 539 190 525 c 0x7080
 190 516 192 505 192 500 c 0
 192 469 194 439 195 408 c 0
 195 402 194 394 194 386 c 0
 194 380 194 374 197 371 c 0
 206 359 245 350 259 346 c 1
 249 536 l 1
 240 537 222 542 208 542 c 0
179 374 m 1x2880
 175 536 l 1x3080
 134 531 93 504 70 470 c 0
 63 459 55 447 55 434 c 0
 55 409 80 403 97 397 c 0
 124 388 152 380 179 374 c 1x2880
195 352 m 1x2a80
 197 282 199 212 201 142 c 1
 217 145 256 144 265 159 c 0
 267 162 267 166 267 170 c 0
 267 179 265 190 265 196 c 0x2c80
 265 228 264 262 261 294 c 2
 261 312 l 2
 261 318 261 323 258 327 c 0
 247 340 212 349 195 352 c 1x2a80
277 318 m 1x2280
 281 166 l 1
 312 174 350 205 350 240 c 2
 350 244 l 2
 347 277 307 309 277 318 c 1x2280
EndSplineSet
Validated: 33
EndChar

StartChar: greater
Encoding: 62 62 19
Width: 319
VWidth: 0
Flags: W
VStem: 42 237
LayerCount: 2
Back
Fore
SplineSet
259 394 m 1
 238 400 220 415 201 425 c 0
 164 445 125 462 89 485 c 0
 74 494 58 501 44 509 c 0
 40 511 39 516 42 519 c 0
 45 523 49 524 53 524 c 0
 69 524 90 505 99 499 c 0
 142 471 191 453 235 426 c 0
 246 419 275 409 279 396 c 1
 279 394 l 2
 279 379 241 353 233 344 c 0
 198 307 163 270 130 232 c 0
 122 222 104 192 91 190 c 0
 76 188 88 208 91 212 c 0
 106 232 123 250 139 268 c 0
 154 285 169 302 185 318 c 0
 209 343 238 367 259 394 c 1
EndSplineSet
Validated: 1
EndChar

StartChar: h
Encoding: 104 104 20
Width: 355
VWidth: 0
Flags: HW
HStem: 355 17<167.295 237.53>
VStem: 40 19<2.94531 186.017> 59 17<327.734 576.639> 299 16<59.5598 259.162>
LayerCount: 2
Back
Fore
SplineSet
208 363 m 4xb0
 295 363 315 261 315 173 c 0
 315 118 316 51 306 3 c 0
 303 -2 301 -5 298 -5 c 0
 296 -5 293 -2 291 5 c 0
 299 50 299 121 299 166 c 0
 299 225 294 286 266 322 c 0
 248 345 226 346 204 346 c 4
 169 346 132 331 108 300 c 0
 65 246 67 188 63 123 c 0
 62 99 59 76 59 52 c 0
 59 46 68 1 47 1 c 0
 40 1 40 23 40 40 c 0xd0
 40 55 41 68 41 72 c 0
 41 93 45 106 45 127 c 0
 45 138 47 156 48 167 c 0
 56 268 54 376 59 480 c 1
 59 554 l 2
 59 561 60 576 69 577 c 2
 70 577 l 2
 76 577 77 569 77 560 c 0
 77 551 76 542 76 538 c 0
 75 495 73 451 73 408 c 0
 73 377 67 342 67 309 c 0
 67 296 68 282 71 270 c 1
 76 291 94 311 109 326 c 0
 136 352 173 363 208 363 c 4xb0
EndSplineSet
EndChar

StartChar: u
Encoding: 117 117 21
Width: 372
VWidth: 0
Flags: HWO
HStem: 341 20G<307.5 319.5>
VStem: 40 17<177.754 349.678> 316 16<156.818 343.324>
LayerCount: 2
Back
Fore
SplineSet
49 350 m 0
 55 352 60 348 60 342 c 0
 59 320 57 297 57 274 c 0
 57 219 61 153 79 101 c 4
 88 73 109 19 140 12 c 4
 198 -2 268 60 295 113 c 4
 314 150 316 202 316 248 c 0
 316 277 315 313 310 336 c 0
 309 342 301 361 314 361 c 0
 325 361 327 338 328 330 c 0
 331 312 332 288 332 264 c 0
 332 244 331 224 331 208 c 0
 327 113 282 9 185 -6 c 4
 179 -7 172 -8 166 -8 c 4
 52 -8 51 158 42 238 c 0
 41 250 40 262 40 274 c 0
 40 290 41 306 41 322 c 0
 41 330 39 347 49 350 c 0
EndSplineSet
EndChar

StartChar: R
Encoding: 82 82 22
Width: 450
VWidth: 0
Flags: W
HStem: 333 18<79.6246 118.088> 654 16<92.7844 229.281>
VStem: 43 16<31.5606 329.367> 56 16<318.633 601.758> 355 16<478.334 565.202>
LayerCount: 2
Back
Fore
SplineSet
355 523 m 0xc8
 355 622 250 654 162 654 c 0
 142 654 123 652 107 649 c 0
 93 646 78 644 65 638 c 0
 60 635 57 629 51 627 c 0
 41 624 38 636 42 642 c 0
 49 654 68 658 81 661 c 0
 106 666 132 670 157 670 c 2
 180 669 l 2
 237 665 301 650 342 607 c 0
 363 585 371 556 371 527 c 0
 371 474 343 419 305 389 c 0
 274 364 234 349 195 341 c 0
 177 337 154 337 137 330 c 1
 162 324 189 303 211 289 c 0
 282 244 337 192 373 114 c 0
 384 89 395 56 405 31 c 0
 408 25 416 10 407 5 c 0
 398 0 393 15 391 21 c 0
 382 44 373 74 363 96 c 0
 322 189 255 244 169 295 c 0
 147 308 123 323 99 333 c 0
 92 336 77 337 78 348 c 0
 79 358 95 353 101 351 c 0
 110 349 119 348 128 348 c 0
 149 348 171 353 191 357 c 0
 273 375 355 432 355 523 c 0xc8
62 602 m 0
 74 609 72 586 72 580 c 0xd8
 71 552 70 524 70 496 c 0
 70 381 61 267 61 152 c 0
 61 119 59 67 59 34 c 0
 59 27 63 5 53 2 c 0
 39 -2 43 23 43 30 c 0xe8
 43 63 45 115 45 148 c 0
 45 262 53 376 54 490 c 0
 54 518 55 545 56 573 c 0xd8
 56 581 54 597 62 602 c 0
EndSplineSet
Validated: 33
EndChar

StartChar: P
Encoding: 80 80 23
Width: 386
VWidth: 0
Flags: W
HStem: 5 21G<56.5 63.5> 318 16<41.1414 60 76 191.955> 658 16<92.4464 176.76>
VStem: 52 16<5.00654 251.153> 60 16<135.847 318 334 627.109> 68 16<571.891 645.812> 330 17<438.116 538.785>
LayerCount: 2
Back
Fore
SplineSet
60 334 m 1xea
 67 413 63 492 66 571 c 0
 67 590 68 609 68 628 c 0xe6
 68 632 67 638 67 643 c 0
 67 647 68 652 70 655 c 0
 80 670 106 674 127 674 c 0
 133 674 139 674 144 673 c 0
 210 664 271 631 316 582 c 0
 337 559 347 526 347 492 c 0
 347 439 323 384 282 358 c 0
 222 321 144 318 76 318 c 1xea
 76 247 70 140 70 69 c 0
 70 52 69 34 68 17 c 0xf2
 68 12 67 5 60 5 c 0xea
 53 5 52 14 52 19 c 0xf2
 52 36 54 52 54 69 c 0
 54 140 60 247 60 318 c 1
 47 319 40 325 40 329 c 0
 40 332 44 335 51 335 c 0
 53 335 57 335 60 334 c 1xea
76 334 m 1xea
 82 334 88 334 94 334 c 0
 154 334 223 339 274 372 c 0
 310 396 330 443 330 490 c 0
 330 519 322 547 306 568 c 0
 271 612 206 649 150 656 c 0
 142 657 132 658 122 658 c 0
 109 658 96 656 88 646 c 0
 85 642 84 637 84 632 c 0
 84 630 84 627 84 625 c 0
 84 623 84 622 84 620 c 0xe6
 83 599 82 579 82 558 c 0
 82 483 79 408 76 334 c 1xea
EndSplineSet
Validated: 1
EndChar

StartChar: zero
Encoding: 48 48 24
Width: 427
VWidth: 0
Flags: W
HStem: 18 16<169.675 242.278> 654 15<191.443 216.273>
VStem: 55 14<197.449 358.59> 369 16<222.728 423.323>
LayerCount: 2
Back
Fore
SplineSet
198 654 m 0
 188 659 189 669 202 669 c 0
 216 669 239 658 249 653 c 0
 330 616 362 525 378 428 c 0
 382 403 383 379 384 353 c 0
 384 343 385 333 385 323 c 0
 385 202 359 49 223 20 c 0
 215 18 208 18 201 18 c 0
 135 18 96 86 74 142 c 0
 58 184 55 229 55 279 c 0
 55 358 73 443 101 516 c 0
 115 553 146 614 187 628 c 0
 193 630 216 629 210 618 c 0
 206 611 188 613 181 608 c 0
 164 596 149 574 138 556 c 0
 118 524 106 487 96 451 c 0
 80 395 69 335 69 276 c 0
 69 244 72 213 79 182 c 0
 92 119 133 34 204 34 c 0
 213 34 222 35 232 38 c 0
 293 56 329 109 349 166 c 0
 366 215 369 264 369 322 c 0
 369 392 358 457 338 525 c 0
 327 562 294 609 261 629 c 0
 241 641 218 644 198 654 c 0
EndSplineSet
Validated: 1
EndChar

StartChar: question
Encoding: 63 63 25
Width: 311
VWidth: 0
Flags: W
HStem: 655 17<183.83 246.364>
VStem: 40 17<508.1 541.125> 145 17<304.477 346.381> 156 24<67.0534 105.371> 257 14<582.112 642.51>
LayerCount: 2
Back
Fore
SplineSet
257 620 m 0xe8
 257 642 243 655 222 655 c 0
 211 655 200 652 190 649 c 0
 141 633 106 598 75 558 c 0
 62 542 63 529 57 512 c 0
 56 509 52 507 48 508 c 0
 39 510 39 521 40 528 c 0
 43 546 56 562 67 576 c 0
 103 625 154 662 215 671 c 0
 219 672 222 672 225 672 c 0
 259 672 271 646 271 616 c 0
 271 609 270 603 269 596 c 0
 258 523 219 452 188 386 c 0
 178 365 168 344 162 322 c 0
 160 316 159 303 150 304 c 0
 146 304 145 308 145 314 c 0
 145 333 165 378 168 384 c 0
 196 445 228 507 247 572 c 0
 251 585 257 603 257 620 c 0xe8
170 106 m 2
 171 106 l 2
 177 106 180 97 180 88 c 0
 180 78 177 68 170 67 c 2
 168 67 l 2
 160 67 156 75 156 83 c 0xd8
 156 93 161 104 170 106 c 2
EndSplineSet
Validated: 1
EndChar

StartChar: quotedbl
Encoding: 34 34 26
Width: 200
VWidth: 0
Flags: W
HStem: 511 153
VStem: 43 18<511.167 649.718> 153 16<525.754 641.009>
LayerCount: 2
Back
Fore
SplineSet
61 525 m 0
 61 517 60 511 53 511 c 0
 43 511 43 537 43 542 c 2
 43 633 l 2
 43 637 42 644 42 650 c 0
 42 656 43 662 47 664 c 0
 61 673 57 646 57 640 c 0
 57 609 59 580 59 549 c 0
 59 544 61 534 61 525 c 0
169 575 m 0
 169 561 168 521 154 521 c 0
 142 521 149 539 150 545 c 0
 152 555 153 565 153 574 c 0
 153 593 150 610 146 628 c 0
 145 635 143 648 154 648 c 0
 163 648 163 629 164 622 c 0
 167 606 169 591 169 575 c 0
EndSplineSet
Validated: 1
EndChar

StartChar: percent
Encoding: 37 37 27
Width: 323
VWidth: 0
Flags: W
VStem: 60 36<411.413 480.575> 60 15<434.117 451.837> 236 17<220.03 235.013>
LayerCount: 2
Back
Fore
SplineSet
275 556 m 0x20
 284 559 285 549 282 543 c 0
 269 519 257 494 245 470 c 0
 202 384 155 300 107 216 c 0
 93 192 81 168 67 144 c 0
 63 137 56 122 47 122 c 0
 34 122 44 139 47 144 c 0
 62 168 75 193 89 218 c 0
 148 320 205 424 257 532 c 0
 261 540 266 553 275 556 c 0x20
60 440 m 0xa0
 60 457 66 481 81 481 c 0
 90 481 96 465 96 448 c 0
 96 432 90 415 77 411 c 0
 76 411 75 410 74 410 c 0
 64 410 60 424 60 440 c 0xa0
77 452 m 1
 75 434 l 1x60
 77 434 l 1
 81 452 l 1
 77 452 l 1
265 252 m 1
 276 250 280 242 280 233 c 0
 280 220 271 205 257 204 c 2
 255 204 l 2
 242 204 236 214 236 226 c 0
 236 243 246 264 259 268 c 0
 272 272 271 258 265 252 c 1
253 220 m 1
 265 234 l 1
 263 236 l 1
 256 232 253 228 253 220 c 1
EndSplineSet
Validated: 1
EndChar

StartChar: bracketleft
Encoding: 91 91 28
Width: 279
VWidth: 0
Flags: W
HStem: 8 17<73.2378 178.185> 17 17<94.1125 236.165> 648 17<120.787 186.968>
VStem: 40 16<333.312 647.92> 49 16<33.6402 352.688>
LayerCount: 2
Back
Fore
SplineSet
63 678 m 0x70
 89 688 130 668 157 665 c 0
 158 665 159 665 160 665 c 0
 163 665 167 665 171 665 c 0
 179 665 187 664 187 657 c 0
 187 650 176 648 167 648 c 0
 138 648 115 658 88 662 c 0
 76 664 65 663 62 649 c 0
 56 626 55 601 55 575 c 0
 55 554 56 534 56 515 c 0x70
 56 413 65 311 65 209 c 0
 65 191 65 173 65 155 c 0
 65 128 65 100 69 73 c 0
 72 57 64 25 87 25 c 0xa8
 94 25 102 27 107 27 c 0
 140 29 175 30 208 34 c 0
 213 35 252 35 234 22 c 0
 228 18 216 17 206 17 c 0
 200 17 195 17 191 17 c 0x68
 161 16 130 13 100 10 c 0
 94 10 87 8 80 8 c 0xa8
 72 8 64 10 60 17 c 0
 53 30 54 51 53 65 c 0
 50 102 49 138 49 175 c 0x68
 49 284 40 391 40 500 c 0
 40 544 42 588 44 632 c 0
 45 648 45 671 63 678 c 0x70
EndSplineSet
Validated: 33
EndChar

StartChar: o
Encoding: 111 111 29
Width: 351
VWidth: 0
Flags: HW
HStem: 8 19<111.544 200.195> 340 16<82.282 90 107.794 123.904>
VStem: 14 18<98.8513 201.064> 313 19<139.238 218.244>
LayerCount: 2
Back
Fore
SplineSet
90 352 m 1
 83 352 57 354 69 367 c 0
 72 370 77 371 82 371 c 0
 88 371 95 370 100 370 c 2
 102 370 l 2
 111 371 127 381 137 381 c 0
 143 381 146 378 146 369 c 0
 146 367 146 365 146 363 c 2
 153 363 l 2
 192 363 238 319 263 295 c 0
 288 273 315 244 327 213 c 0
 331 203 332 192 332 182 c 0
 332 147 314 113 293 87 c 0
 265 52 221 10 174 2 c 0
 169 1 164 1 159 1 c 0
 115 1 63 36 38 67 c 0
 24 85 20 106 16 128 c 0
 15 135 14 143 14 151 c 0
 14 172 13 199 20 219 c 0
 34 265 62 322 90 352 c 1
116 352 m 0
 98 343 73 299 64 282 c 0
 43 242 32 192 32 147 c 0
 32 129 35 111 43 94 c 0
 59 56 113 20 160 20 c 0
 174 20 187 22 198 28 c 0
 248 53 313 118 313 179 c 0
 313 188 312 196 309 205 c 0
 291 260 231 319 177 339 c 0
 165 342 141 354 125 354 c 0
 122 354 118 353 116 352 c 0
EndSplineSet
EndChar

StartChar: k
Encoding: 107 107 30
Width: 324
VWidth: 0
Flags: HWO
VStem: 27 15<354.766 582.942> 32 16<16.2979 298 352 527.234>
LayerCount: 2
Back
Fore
SplineSet
209 445 m 0x80
 213 445 215 443 215 439 c 0
 215 427 186 413 180 409 c 0
 138 383 90 354 44 334 c 1
 51 309 78 286 94 266 c 0
 150 195 213 107 268 35 c 0
 273 29 283 21 284 13 c 0
 285 1 272 7 267 11 c 0
 251 26 238 44 224 61 c 4
 182 113 137 186 95 238 c 0
 80 257 59 276 48 298 c 1
 46 298 l 1
 46 261 48 223 48 186 c 0x40
 48 148 49 75 49 37 c 0
 49 34 50 28 50 21 c 0
 50 12 49 4 42 4 c 0x80
 32 4 33 21 33 27 c 0
 32 52 32 111 32 136 c 0
 32 158 32 180 32 202 c 0x40
 32 235 32 269 30 302 c 0
 29 312 20 319 20 328 c 0
 20 336 27 343 28 352 c 0
 28 360 29 369 29 377 c 0
 29 402 27 428 27 453 c 0
 27 485 26 518 26 550 c 0
 26 554 25 560 25 566 c 0
 25 574 27 583 34 583 c 0
 41 583 43 568 43 554 c 0
 43 544 42 533 42 530 c 0
 42 471 44 411 44 352 c 1
 85 379 130 398 172 424 c 0
 178 427 198 445 209 445 c 0x80
EndSplineSet
EndChar

StartChar: w
Encoding: 119 119 31
Width: 491
VWidth: 0
Flags: W
HStem: 7 16<115.381 166.798 324.923 364.4>
VStem: 40 17<152.543 357.57> 49 16<311.62 366.322> 251 24<150.81 222.241> 433 17<158.284 288.778>
LayerCount: 2
Back
Fore
SplineSet
257 168 m 1xd8
 256 143 246 117 236 94 c 0
 219 54 182 7 139 7 c 0
 126 7 113 11 99 21 c 0
 45 61 45 173 41 243 c 0
 40 254 40 266 40 278 c 0xd8
 40 292 40 306 42 320 c 0
 43 329 43 356 49 363 c 0
 55 369 65 367 65 358 c 0xb8
 65 349 60 329 59 323 c 0
 57 313 57 304 57 294 c 2
 57 274 l 2
 57 208 62 139 83 76 c 0
 92 51 112 23 140 23 c 0
 144 23 149 24 153 25 c 0
 207 40 230 117 241 165 c 0
 244 180 248 195 251 210 c 0
 252 215 254 224 261 223 c 0
 275 221 274 185 275 174 c 0
 278 139 292 103 305 70 c 0
 314 48 326 19 342 19 c 2
 344 19 l 2
 373 22 399 85 410 108 c 0
 427 143 433 192 433 236 c 0
 433 287 412 318 396 354 c 0
 393 361 396 373 405 368 c 0
 422 359 436 310 442 292 c 0
 448 274 450 254 450 233 c 0
 450 176 435 116 411 74 c 0
 397 50 365 2 339 2 c 0
 317 2 297 48 286 68 c 0
 267 100 270 135 257 168 c 1xd8
EndSplineSet
Validated: 1
EndChar

StartChar: D
Encoding: 68 68 32
Width: 394
VWidth: 0
Flags: W
HStem: 646 17<60.2727 130.884>
VStem: 43 13<448.599 638> 55 16<29.2813 369.571> 341 16<259.77 407.763>
LayerCount: 2
Back
Fore
SplineSet
52 29 m 1xd0
 51 35 51 41 51 48 c 0
 51 73 55 99 55 125 c 0
 55 131 55 137 55 143 c 0xb0
 55 191 52 239 52 287 c 0
 51 372 46 457 43 542 c 0
 42 565 41 588 39 610 c 0
 38 619 34 629 39 637 c 0
 50 657 71 663 92 663 c 0
 101 663 110 662 119 660 c 0
 179 645 241 606 281 558 c 0
 334 495 357 417 357 338 c 0
 357 283 346 228 326 176 c 0
 308 129 286 82 245 51 c 0
 190 9 130 14 66 10 c 1
 74 -18 49 -19 52 10 c 1
 40 15 38 26 52 29 c 1xd0
60 638 m 1
 56 613 l 1xd0
 62 473 66 332 71 192 c 1
 68 27 l 1
 126 27 183 27 233 62 c 0
 272 90 292 134 309 178 c 0
 329 230 341 282 341 335 c 0
 341 393 327 450 297 505 c 0
 264 565 207 609 145 633 c 0
 127 639 109 646 91 646 c 0
 81 646 71 644 60 638 c 1
EndSplineSet
Validated: 1
EndChar

StartChar: Q
Encoding: 81 81 33
Width: 569
VWidth: 0
Flags: W
HStem: 7 16<234.915 342.522> 50 27<398.294 426.965> 651 19<234.827 341.33>
VStem: 515 14<266.541 400.073>
LayerCount: 2
Back
Fore
SplineSet
208 636 m 1
 184 627 164 613 142 600 c 0
 137 597 124 591 124 602 c 0
 124 616 160 631 170 637 c 0
 202 656 246 670 288 670 c 0
 312 670 336 665 356 654 c 0
 471 592 529 462 529 332 c 0
 529 231 494 130 424 60 c 1
 441 48 457 35 474 24 c 0
 479 21 490 16 488 8 c 0
 485 -3 471 6 466 9 c 0
 448 20 426 33 414 50 c 1
 412 50 l 1
 384 19 340 7 294 7 c 0
 241 7 185 24 150 49 c 0
 124 68 104 94 86 120 c 0
 53 167 40 220 40 274 c 0
 40 361 75 452 118 524 c 0
 140 562 167 614 208 634 c 1
 208 636 l 1
234 648 m 1
 234 646 l 1
 240 646 265 639 250 631 c 0
 235 623 219 625 204 613 c 0
 167 583 139 534 119 492 c 0
 70 392 39 298 70 188 c 0
 97 93 193 23 289 23 c 0
 328 23 366 34 400 60 c 1
 386 80 366 100 348 116 c 0
 344 120 328 129 334 136 c 0
 341 145 355 129 360 124 c 0
 372 113 395 77 414 77 c 0
 418 77 421 79 424 82 c 0
 441 100 452 123 464 144 c 0
 496 201 515 269 515 336 c 0
 515 403 496 450 474 498 c 0
 448 557 406 617 344 642 c 0
 327 649 310 651 293 651 c 0
 274 651 254 649 234 648 c 1
EndSplineSet
Validated: 33
EndChar

StartChar: one
Encoding: 49 49 34
Width: 232
VWidth: 0
Flags: W
VStem: 161 17<22.052 237.111> 169 17<165.359 628.405>
LayerCount: 2
Back
Fore
SplineSet
180 650 m 0x40
 188 650 192 642 192 633 c 0
 192 625 190 616 189 610 c 0
 187 580 185 550 185 520 c 0
 185 446 186 370 186 294 c 0x40
 186 213 185 132 178 56 c 1
 178 39 l 2
 178 31 177 23 171 22 c 2
 170 22 l 2
 163 22 161 31 161 39 c 0x80
 161 45 162 50 162 53 c 0
 163 89 167 125 167 161 c 0
 167 254 169 347 169 440 c 0
 169 468 168 496 168 525 c 0
 168 560 169 596 175 630 c 1
 139 613 108 584 77 560 c 0
 72 556 58 543 48 543 c 0
 45 543 40 546 40 550 c 0
 40 559 64 570 69 575 c 0
 97 597 125 620 155 639 c 0
 161 643 172 650 180 650 c 0x40
EndSplineSet
Validated: 1
EndChar

StartChar: colon
Encoding: 58 58 35
Width: 135
VWidth: 0
Flags: HWO
HStem: 426 17<73 77.8473>
VStem: 40 31<408.003 424> 47 35<160.257 201.856> 78 17<403.645 425.48>
LayerCount: 2
Back
Fore
SplineSet
40 293 m 4xd0
 40 310 52 338 72 338 c 4
 85 338 95 327 95 314 c 6
 95 313 l 6
 94 295 75 275 54 275 c 4
 44 275 40 283 40 293 c 4xd0
73 321 m 5
 71 319 l 5
 74 307 69 303 57 303 c 5
 53 293 l 5
 55 291 l 5
 67 294 78 303 78 315 c 4
 78 317 78 319 77 321 c 6
 73 321 l 5
71 97 m 5
 79 94 82 87 82 79 c 4
 82 68 75 56 63 55 c 6
 62 55 l 6
 51 55 47 65 47 77 c 4xa0
 47 91 54 108 63 112 c 4
 75 117 74 103 71 97 c 5
EndSplineSet
EndChar

StartChar: quotedblleft
Encoding: 8220 8220 36
Width: 205
VWidth: 0
Flags: W
HStem: 484 198
VStem: 121 37<488.219 521.191> 121 17<511.155 575.071>
LayerCount: 2
Back
Fore
SplineSet
158 490 m 0xc0
 158 486 152 484 149 484 c 0
 135 484 125 510 123 520 c 0
 122 525 121 531 121 537 c 0
 121 562 131 590 138 612 c 0
 141 621 144 637 153 642 c 0
 159 645 166 641 165 634 c 0
 159 599 138 570 138 533 c 0
 138 531 138 528 138 526 c 0xa0
 139 517 158 499 158 490 c 0xc0
56 567 m 0
 56 559 64 530 51 530 c 0
 40 530 40 555 40 563 c 0
 42 593 50 623 56 652 c 0
 58 661 58 678 67 682 c 0
 83 690 74 661 73 656 c 0
 67 627 58 597 56 567 c 0
EndSplineSet
Validated: 33
EndChar

StartChar: ampersand
Encoding: 38 38 37
Width: 500
VWidth: 0
Flags: W
HStem: 124 16<79.3435 189.019> 687 15<190.168 256.39>
VStem: 40 15<158.172 203.978> 116 14<517.637 615.937> 322 15<528.519 612.256>
LayerCount: 2
Back
Fore
SplineSet
200 374 m 1
 152 422 116 497 116 568 c 0
 116 585 118 602 122 618 c 0
 136 669 182 702 228 702 c 0
 253 702 279 692 300 670 c 0
 326 642 337 609 337 575 c 0
 337 530 318 484 289 448 c 0
 275 430 259 413 244 396 c 0
 238 390 227 380 226 372 c 2
 226 371 l 2
 226 361 241 348 247 340 c 0
 270 310 293 279 320 252 c 1
 327 274 345 300 359 318 c 0
 363 323 380 335 380 320 c 0
 380 313 372 307 368 302 c 0
 359 289 351 274 343 260 c 0
 340 255 331 245 334 239 c 0
 338 229 354 220 362 213 c 0
 385 194 408 176 430 156 c 0
 439 148 457 137 459 124 c 2
 459 122 l 2
 459 118 457 116 455 116 c 0
 447 116 427 136 424 138 c 0
 390 168 351 195 320 228 c 1
 289 167 216 125 148 124 c 0
 145 124 142 124 139 124 c 0
 100 124 40 131 40 177 c 2
 40 184 l 2
 42 206 55 226 66 242 c 0
 83 266 105 285 126 306 c 0
 147 327 173 359 200 372 c 1
 200 374 l 1
214 386 m 1
 256 436 309 478 321 556 c 0
 322 561 322 567 322 572 c 0
 322 630 278 687 224 687 c 0
 209 687 192 683 176 672 c 0
 143 651 130 607 130 568 c 0
 130 526 143 493 160 462 c 0
 173 439 189 398 214 386 c 1
55 177 m 0
 55 143 106 140 132 140 c 0
 207 140 270 175 310 240 c 1
 273 271 237 319 212 360 c 1
 193 352 177 332 162 318 c 0
 131 289 96 261 73 224 c 0
 66 212 55 193 55 177 c 0
EndSplineSet
Validated: 1
EndChar

StartChar: bracketright
Encoding: 93 93 38
Width: 243
VWidth: 0
Flags: W
HStem: 1 16<80.0838 167> 7 20<56.9284 155.827>
VStem: 179 14<87.6641 370> 185 18<399.5 636.625>
LayerCount: 2
Back
Fore
SplineSet
185 635 m 1x90
 147 643 109 639 71 646 c 0
 63 647 34 651 41 665 c 0
 43 669 48 670 52 669 c 0
 68 664 84 660 101 659 c 0
 123 658 146 657 168 655 c 0
 177 654 189 653 195 646 c 0
 202 639 203 625 203 612 c 0x90
 203 601 202 590 202 582 c 0
 202 460 195 339 193 217 c 0xa0
 192 167 190 119 185 69 c 0
 185 65 184 61 184 56 c 0
 184 50 185 43 185 36 c 0
 185 27 184 18 182 11 c 0
 179 1 166 1 157 1 c 0x90
 132 1 105 1 81 7 c 0
 74 9 56 12 55 21 c 0
 54 31 68 29 73 27 c 0x50
 103 17 136 17 167 17 c 1
 175 129 l 1
 179 277 l 1xa0
 186 494 l 1
 185 635 l 1x90
EndSplineSet
Validated: 33
EndChar

StartChar: d
Encoding: 100 100 39
Width: 331
VWidth: 0
Flags: W
HStem: 9 16<76.3516 133.82> 350 14<145.65 211.793>
VStem: 16 18<80.0266 211.927> 247 22<337.219 553.726> 257 23<172.301 238.743> 292 20<18.5697 80.1691 318.92 565.092>
LayerCount: 2
Back
Fore
SplineSet
253 336 m 1xec
 249 362 247 389 247 417 c 0xf4
 247 459 251 500 255 539 c 0
 256 550 265 591 281 591 c 0
 285 591 290 588 295 582 c 0
 314 559 309 515 311 488 c 0
 312 473 312 458 312 443 c 0
 312 401 309 359 302 318 c 0
 298 293 297 266 292 241 c 0
 290 231 280 226 280 216 c 0
 283 164 297 108 307 58 c 0
 308 52 318 30 318 18 c 0
 318 13 316 10 311 10 c 0
 295 10 292 40 290 49 c 0
 280 92 282 142 264 182 c 1
 258 149 234 115 214 87 c 0
 201 68 185 50 167 36 c 0
 149 22 131 9 103 9 c 0
 59 9 30 50 23 87 c 0
 19 109 16 131 16 152 c 0
 16 210 34 266 76 313 c 0
 105 344 143 364 181 364 c 0
 206 364 231 356 253 336 c 1xec
280 569 m 1xec
 270 537 268 501 268 466 c 0
 268 438 269 411 269 386 c 2
 269 357 l 2xf4
 269 337 270 316 278 299 c 1
 280 299 l 1
 288 352 292 406 292 460 c 2
 292 492 l 2
 291 515 294 549 280 569 c 1xec
181 350 m 2
 141 349 112 328 89 301 c 0
 48 253 34 199 34 140 c 0
 34 136 34 132 34 128 c 0
 36 91 50 26 103 25 c 2
 105 25 l 2
 135 25 164 52 181 72 c 0
 223 122 257 181 257 244 c 2
 257 257 l 2xec
 256 272 257 292 253 306 c 0
 243 330 210 350 183 350 c 2
 181 350 l 2
EndSplineSet
Validated: 1
EndChar

StartChar: l
Encoding: 108 108 40
Width: 195
VWidth: 0
Flags: W
HStem: 6 16<134.964 164.923> 634 20G<60.5 67>
VStem: 40 18<248.745 558.298> 55 16<543.379 653.916>
LayerCount: 2
Back
Fore
SplineSet
55 639 m 0xd0
 55 647 57 654 64 654 c 0
 70 654 71 641 71 634 c 0
 71 633 71 632 71 631 c 0xd0
 70 604 63 542 61 515 c 0
 59 485 58 453 58 419 c 0
 58 318 68 205 87 118 c 0
 93 89 105 52 130 33 c 0
 139 26 148 26 158 22 c 0
 162 21 165 17 165 13 c 0
 165 8 159 6 154 6 c 0
 144 6 130 13 124 17 c 0
 93 35 70 109 62 142 c 0
 45 212 40 288 40 364 c 0xe0
 40 412 42 460 44 506 c 0
 45 535 55 599 55 628 c 0
 55 631 55 635 55 639 c 0xd0
EndSplineSet
Validated: 1
EndChar

StartChar: v
Encoding: 118 118 41
Width: 360
VWidth: 0
Flags: HWO
VStem: 42 278
LayerCount: 2
Back
Fore
SplineSet
174 33 m 1
 203 98 219 203 250 265 c 0
 264 293 280 324 298 350 c 4
 301 355 316 379 322 364 c 4
 324 358 319 351 316 346 c 4
 306 331 295 317 287 302 c 4
 244 224 222 90 188 21 c 0
 185 15 183 3 174 4 c 0
 165 5 163 17 160 23 c 0
 152 42 142 61 135 81 c 0
 105 160 81 276 46 351 c 0
 44 356 39 363 43 368 c 0
 51 380 60 359 63 353 c 0
 76 325 87 296 99 267 c 0
 127 201 144 97 174 33 c 1
EndSplineSet
EndChar

StartChar: L
Encoding: 76 76 42
Width: 395
VWidth: 0
Flags: W
HStem: 11 19<97.3289 354.948> 644 20G<45.5 52.5>
VStem: 40 17<495.664 663.968> 47 16<389.897 629.336> 77 20<27 208.495>
LayerCount: 2
Back
Fore
SplineSet
40 649 m 0xe8
 40 657 42 664 49 664 c 0
 56 664 57 653 57 644 c 0
 57 639 57 635 57 633 c 0xe8
 58 598 61 533 63 498 c 0
 70 349 97 176 97 27 c 1
 104 29 112 30 120 30 c 0
 134 30 150 28 163 27 c 0
 188 26 212 25 237 25 c 0
 259 25 281 26 302 28 c 0
 307 28 320 30 331 30 c 0
 344 30 355 28 355 21 c 0
 355 12 337 11 321 11 c 0
 316 11 312 11 308 11 c 0
 306 11 303 11 302 11 c 0
 279 9 256 9 233 9 c 2
 137 13 l 2
 134 13 132 13 130 13 c 0
 115 13 102 9 87 8 c 0
 80 8 77 14 77 22 c 0
 77 34 82 49 82 57 c 0
 82 201 51 357 47 494 c 0xd8
 46 529 42 596 41 631 c 0
 41 635 40 642 40 649 c 0xe8
EndSplineSet
Validated: 1
EndChar

StartChar: S
Encoding: 83 83 43
Width: 394
VWidth: 0
Flags: W
HStem: -1 19<163.846 254.429> 649 18<169.316 267.533>
VStem: 92 17<508.87 593.01> 336 16<100.006 181.921>
LayerCount: 2
Back
Fore
SplineSet
146 651 m 0
 169 661 195 667 221 667 c 0
 250 667 280 660 305 641 c 0
 308 639 352 602 334 597 c 0
 328 595 320 601 316 606 c 0
 304 617 292 629 277 636 c 0
 260 645 239 649 218 649 c 0
 166 649 112 622 109 559 c 0
 109 557 109 555 109 553 c 0
 109 518 124 485 140 456 c 0
 167 406 201 364 239 325 c 0
 275 290 314 259 335 210 c 0
 344 188 352 159 352 132 c 0
 352 52 271 -1 206 -1 c 0
 160 -1 116 29 82 63 c 0
 79 67 44 104 44 119 c 0
 44 122 45 124 48 125 c 0
 56 128 64 114 68 108 c 0
 97 67 150 18 210 18 c 0
 246 18 280 34 308 69 c 0
 321 87 336 104 336 135 c 0
 336 168 322 205 306 229 c 0
 275 276 228 307 193 348 c 0
 181 361 170 376 160 390 c 0
 130 431 92 501 92 561 c 0
 92 598 107 631 146 651 c 0
EndSplineSet
Validated: 33
EndChar

StartChar: two
Encoding: 50 50 44
Width: 354
VWidth: 0
Flags: W
HStem: 20 18<56.1096 249.56> 27 18<76.6748 308.868> 643 16<179.811 230.492>
VStem: 254 17<459.706 605.129>
LayerCount: 2
Back
Fore
SplineSet
68 20 m 0xb0
 54 20 41 23 41 39 c 0
 41 52 50 67 55 77 c 0
 72 108 98 165 116 194 c 0
 150 248 181 303 209 360 c 0
 231 405 253 457 254 508 c 0
 254 530 254 552 251 574 c 0
 247 599 244 643 210 643 c 0
 198 643 184 638 174 632 c 0
 131 611 97 572 76 530 c 0
 68 514 63 494 55 478 c 0
 52 472 45 472 42 478 c 0
 41 481 40 484 40 487 c 0
 40 505 57 532 64 544 c 0
 89 587 123 626 168 648 c 0
 180 654 196 659 211 659 c 0
 244 659 255 635 261 612 c 0
 268 587 271 558 271 530 c 0
 271 517 271 504 269 492 c 0
 246 329 114 185 56 38 c 1
 62 38 68 38 74 38 c 0xb0
 131 38 192 43 249 44 c 0
 254 44 269 45 283 45 c 0
 309 45 309 44 309 37 c 0
 309 29 290 27 274 27 c 0x70
 264 27 255 28 252 28 c 0
 200 26 144 29 92 22 c 0
 86 21 77 20 68 20 c 0xb0
EndSplineSet
Validated: 1
EndChar

StartChar: semicolon
Encoding: 59 59 45
Width: 128
VWidth: 0
Flags: W
HStem: 350 34<40.8383 85.375>
VStem: 70 18<-24.3923 74>
LayerCount: 2
Back
Fore
SplineSet
76 384 m 0
 86 386 89 376 86 368 c 0
 82 359 72 352 62 350 c 0
 48 348 31 359 45 373 c 0
 52 380 67 383 76 384 c 0
56 95 m 0
 56 100 59 103 63 103 c 0
 75 103 81 74 83 67 c 0
 86 53 88 38 88 23 c 0
 88 4 85 -15 80 -34 c 0
 77 -44 72 -63 62 -67 c 0
 54 -70 50 -62 52 -56 c 0
 61 -25 70 0 70 30 c 0
 70 38 70 47 68 56 c 0
 66 63 56 84 56 95 c 0
EndSplineSet
Validated: 1
EndChar

StartChar: quotedblright
Encoding: 8221 8221 46
Width: 207
VWidth: 0
Flags: W
HStem: 532 128
VStem: 40 22<532.928 625.805> 151 15<535.776 659.328>
LayerCount: 2
Back
Fore
SplineSet
44 597 m 0
 44 607 39 622 48 626 c 0
 60 631 62 606 62 595 c 0
 62 580 59 565 57 550 c 0
 56 544 56 534 49 532 c 0
 41 530 40 539 40 545 c 0
 41 563 44 580 44 597 c 0
154 660 m 0
 166 662 166 640 166 633 c 0
 168 606 166 581 162 554 c 0
 161 547 161 531 152 530 c 0
 141 529 144 546 145 552 c 0
 148 573 151 593 151 614 c 0
 151 620 150 626 150 632 c 0
 149 639 144 659 154 660 c 0
EndSplineSet
Validated: 33
EndChar

StartChar: parenleft
Encoding: 40 40 47
Width: 194
VWidth: 0
Flags: W
VStem: 40 17<171.362 425.764>
LayerCount: 2
Back
Fore
SplineSet
145 5 m 0
 145 1 140 -1 135 -1 c 0
 121 -1 102 18 96 26 c 0
 66 62 55 121 49 167 c 0
 43 209 40 252 40 296 c 0
 40 401 57 509 85 608 c 0
 95 641 103 674 118 706 c 0
 123 717 131 736 142 742 c 0
 149 746 156 739 154 732 c 0
 151 721 139 711 134 700 c 0
 121 672 112 643 104 614 c 0
 75 513 57 403 57 295 c 0
 57 254 60 213 65 174 c 0
 71 127 80 61 117 28 c 0
 121 25 145 13 145 5 c 0
EndSplineSet
Validated: 1
EndChar

StartChar: asciicircum
Encoding: 94 94 48
Width: 322
VWidth: 0
Flags: W
HStem: 650 20G<146.5 160.5>
VStem: 40 242
LayerCount: 2
Back
Fore
SplineSet
282 544 m 0
 282 540 279 537 276 537 c 0
 266 537 251 557 247 561 c 0
 216 592 187 625 155 655 c 1
 135 623 112 593 90 561 c 0
 81 548 72 531 59 522 c 0
 54 518 39 515 40 526 c 0
 41 535 61 549 67 557 c 0
 87 584 106 613 124 641 c 0
 130 651 140 669 153 670 c 2
 154 670 l 2
 167 670 177 657 186 648 c 0
 210 624 233 599 257 575 c 0
 262 570 282 554 282 544 c 0
EndSplineSet
Validated: 1
EndChar

StartChar: p
Encoding: 112 112 49
Width: 367
VWidth: 0
Flags: W
HStem: 12 16<131.648 227.964> 347 15<112.848 205.172>
VStem: 40 18<-160.061 35 47 206.188 224.75 300.756> 47 15<-197.328 -10.7621 48.5496 270.296> 308 18<130.06 254.456>
LayerCount: 2
Back
Fore
SplineSet
326 192 m 0xe8
 326 102 272 12 187 12 c 2
 182 12 l 2
 143 14 96 23 58 35 c 1
 64 -191 l 1
 59 -200 53 -200 48 -191 c 1
 43 -117 40 -48 40 22 c 0xe8
 40 69 41 117 45 167 c 0
 47 186 47 205 47 224 c 0xd8
 47 240 47 256 46 271 c 0
 45 285 38 308 42 321 c 0
 45 332 55 325 58 319 c 1
 60 319 l 1
 68 335 86 344 102 351 c 0
 120 358 141 362 162 362 c 0
 195 362 228 354 254 339 c 0
 304 310 326 251 326 192 c 0xe8
153 347 m 0
 103 347 60 323 60 266 c 0
 60 251 62 237 62 223 c 0xd8
 62 164 58 106 58 47 c 1
 61 48 64 48 67 48 c 0
 78 48 91 44 102 42 c 0
 129 37 159 28 188 28 c 0
 205 28 221 31 236 40 c 0
 288 73 308 128 308 185 c 0
 308 201 307 217 304 233 c 0
 299 260 294 289 272 307 c 0
 246 329 198 347 153 347 c 0
EndSplineSet
Validated: 33
EndChar

StartChar: f
Encoding: 102 102 50
Width: 351
VWidth: 0
Flags: W
HStem: 343 17<41.1427 130.969> 349 17<46.9045 153.285 170.565 262.623> 659 17<200.751 252.038>
VStem: 148 16<7.19258 253.467> 152 16<169.637 343.717 365 597.312> 294 17<566.094 614.095>
LayerCount: 2
Back
Fore
SplineSet
154 365 m 1x74
 154 409 152 446 152 484 c 0
 152 514 153 545 157 580 c 0
 161 619 174 676 226 676 c 0
 264 676 300 640 306 604 c 0
 307 598 311 585 311 575 c 0
 311 571 310 568 309 566 c 0
 304 559 296 564 294 570 c 0
 289 584 291 600 286 614 c 0
 278 635 250 659 225 659 c 0
 183 659 176 605 173 575 c 0
 169 541 168 511 168 481 c 0x6c
 168 444 170 408 170 365 c 1
 182 369 198 370 213 370 c 0
 227 370 240 369 251 368 c 0
 257 368 277 368 274 357 c 0
 273 352 269 351 263 351 c 0
 255 351 244 354 237 354 c 0
 219 354 201 350 183 350 c 0
 179 350 174 351 170 351 c 1
 170 267 164 161 164 77 c 0
 164 64 164 50 164 36 c 0
 164 25 164 4 156 4 c 0
 154 4 152 5 150 7 c 0
 145 11 148 22 148 28 c 0
 148 38 148 49 148 60 c 0
 148 71 148 82 149 92 c 0
 153 146 153 202 153 256 c 0
 153 269 156 296 156 318 c 0
 156 329 155 338 153 344 c 0
 150 351 138 349 132 349 c 0x74
 110 349 88 345 66 343 c 0
 60 342 40 339 41 351 c 0
 42 361 60 359 67 360 c 0xb4
 89 362 112 366 135 366 c 0
 141 366 148 366 154 365 c 1x74
EndSplineSet
Validated: 1
EndChar

StartChar: x
Encoding: 120 120 51
Width: 365
VWidth: 0
Flags: W
HStem: 336 20G<70.5 77.5>
VStem: 169 23<191.68 213.667>
LayerCount: 2
Back
Fore
SplineSet
65 349 m 0
 65 353 69 356 72 356 c 0
 83 356 97 336 101 330 c 0
 126 297 162 255 177 216 c 1
 215 249 250 292 283 330 c 0
 290 338 308 369 321 365 c 0
 324 364 325 362 325 360 c 0
 325 349 303 327 299 322 c 0
 273 292 245 265 219 236 c 0
 212 228 192 213 192 201 c 0
 192 187 213 170 220 160 c 0
 242 130 259 97 278 66 c 0
 288 51 303 29 303 7 c 0
 303 2 302 0 300 -0 c 0
 292 0 268 48 267 50 c 0
 234 95 213 146 177 188 c 1
 148 142 88 76 57 32 c 0
 53 25 38 -2 26 -2 c 0
 23 -2 20 -1 20 3 c 0
 20 17 61 64 66 70 c 0
 97 113 129 167 169 202 c 1
 169 204 l 1
 136 231 115 282 90 316 c 0
 86 322 65 339 65 349 c 0
EndSplineSet
Validated: 33
EndChar

StartChar: E
Encoding: 69 69 52
Width: 414
VWidth: 0
Flags: W
HStem: 6 20<86.2373 165.535> 20 18<143.001 365.947> 336 22<140.894 304.45> 649 17<117.156 367.899>
VStem: 40 17<341.425 639.909> 53 14<72.0029 313.875> 59 15<35.0186 207.624 208.609 223.032>
LayerCount: 2
Back
Fore
SplineSet
100 661 m 0xb8
 183 665 265 666 349 666 c 0
 354 666 366 666 368 659 c 0
 370 650 358 649 352 649 c 0
 334 649 316 649 298 649 c 0
 218 649 137 649 57 639 c 1xb8
 64 337 l 1
 125 348 185 351 247 353 c 0
 262 353 278 357 293 358 c 0
 298 358 306 356 305 349 c 0
 303 333 259 337 248 336 c 0
 219 333 189 335 160 333 c 0
 128 330 96 322 64 320 c 1
 67 306 67 292 67 277 c 2
 67 225 l 2xb4
 68 183 70 142 74 101 c 1
 74 72 l 2
 74 55 76 37 86 30 c 0
 91 27 100 26 109 26 c 0xb2
 123 26 138 28 146 30 c 0
 173 36 199 38 226 38 c 0
 254 38 282 36 312 36 c 0
 324 36 337 36 350 37 c 0
 355 37 365 37 366 30 c 0
 367 22 357 20 351 20 c 0
 337 19 324 19 311 19 c 0
 284 19 257 20 231 20 c 0x72
 198 20 166 18 134 9 c 0
 127 7 118 6 108 6 c 0
 94 6 79 9 71 18 c 0
 60 30 59 51 59 67 c 2
 59 75 l 2xb2
 59 110 55 148 53 183 c 0
 53 191 52 200 52 208 c 0
 52 221 53 234 53 247 c 0xb4
 53 268 52 290 48 310 c 0
 47 316 39 318 38 324 c 0
 37 331 45 335 46 341 c 0
 48 350 46 363 45 372 c 0
 42 421 40 470 40 519 c 0
 40 542 40 566 41 589 c 0
 41 592 41 595 41 598 c 0
 41 610 40 621 40 633 c 0
 40 638 40 644 41 649 c 0
 42 661 88 661 100 661 c 0xb8
EndSplineSet
Validated: 33
EndChar

StartChar: T
Encoding: 84 84 53
Width: 549
VWidth: 0
Flags: W
HStem: 645 16<248.156 507.85>
VStem: 263 15<335.952 620.403>
LayerCount: 2
Back
Fore
SplineSet
384 661 m 0
 398 662 411 663 425 663 c 2
 480 662 l 2
 486 662 512 665 508 652 c 0
 505 643 489 646 482 646 c 0
 454 646 427 645 400 645 c 0
 309 644 216 643 125 635 c 0
 103 633 81 633 59 631 c 0
 53 630 42 628 40 636 c 0
 37 648 59 648 66 648 c 0
 96 650 127 650 157 653 c 0
 187 656 216 654 246 656 c 0
 292 659 338 657 384 661 c 0
263 421 m 0
 263 482 260 538 258 596 c 0
 258 603 252 622 262 624 c 0
 274 627 274 607 274 600 c 0
 275 571 276 541 278 512 c 0
 285 391 281 257 285 136 c 0
 286 104 287 71 291 39 c 0
 292 35 294 27 294 20 c 0
 294 14 292 8 286 8 c 0
 276 7 276 30 275 37 c 0
 272 70 272 102 269 135 c 0
 264 191 263 250 263 310 c 0
 263 347 263 385 263 421 c 0
EndSplineSet
Validated: 1
EndChar

StartChar: three
Encoding: 51 51 54
Width: 412
VWidth: 0
Flags: W
HStem: 18 15<157.3 229.089> 363 17<259.174 303.879> 653 16<171.733 252.046>
VStem: 294 17<482.264 609.811> 356 16<188.987 300.284>
LayerCount: 2
Back
Fore
SplineSet
65 82 m 0
 65 86 69 89 72 89 c 0
 82 89 96 74 102 70 c 0
 129 50 164 33 198 33 c 2
 206 33 l 2
 231 35 255 54 274 69 c 0
 330 112 353 176 356 244 c 2
 356 252 l 2
 356 283 350 316 327 339 c 0
 312 354 290 363 268 363 c 0
 235 363 220 341 200 327 c 0
 196 325 180 313 171 313 c 0
 168 313 165 314 165 319 c 0
 164 328 176 335 182 340 c 0
 201 355 224 366 240 384 c 0
 279 427 294 499 294 557 c 2
 294 562 l 2
 294 586 289 615 271 632 c 0
 256 647 236 653 215 653 c 0
 164 653 107 618 82 586 c 0
 72 573 65 559 59 544 c 0
 57 538 57 527 52 523 c 0
 44 515 40 527 40 534 c 0
 41 550 51 566 58 580 c 0
 84 628 151 669 213 669 c 0
 234 669 254 664 272 653 c 0
 304 633 311 593 311 549 c 0
 311 491 293 421 258 380 c 1
 338 380 372 318 372 246 c 0
 372 244 372 242 372 240 c 0
 369 145 301 18 196 18 c 0
 148 18 117 38 86 60 c 0
 81 63 65 74 65 82 c 0
EndSplineSet
Validated: 1
EndChar

StartChar: hyphen
Encoding: 45 45 55
Width: 336
VWidth: 0
Flags: W
HStem: 185 16<96.9688 279.531> 192 13<272.843 294.133>
VStem: 41 253
LayerCount: 2
Back
Fore
SplineSet
62 206 m 4xa0
 73 207 84 208 95 208 c 4
 137 208 179 201 221 201 c 4xa0
 230 201 240 201 250 202 c 4
 259 203 270 206 280 206 c 4
 283 206 285 205 287 205 c 4
 293 204 299 198 294 192 c 4x60
 288 186 272 185 259 185 c 6
 228 185 l 6
 185 185 143 191 99 191 c 4
 92 191 75 188 61 188 c 4
 52 188 43 190 41 194 c 4
 34 206 56 205 62 206 c 4xa0
EndSplineSet
Validated: 1
EndChar

StartChar: at
Encoding: 64 64 56
Width: 489
VWidth: 0
Flags: W
HStem: 91 13<207.917 296.228> 266 16<153.403 186.078> 278 18<284.793 317.585> 413 16<218.607 251.639> 609 16<222.517 310.521>
VStem: 40 15<253.961 374.39> 137 16<282.386 325.206> 252 18<376.572 412.608> 384 17<413.301 534.544>
LayerCount: 2
Back
Fore
SplineSet
242 429 m 0xdf80
 261 429 270 416 270 394 c 0
 270 380 267 367 267 353 c 0
 267 345 268 338 271 330 c 0
 275 319 286 296 299 296 c 0
 301 296 302 296 304 297 c 0
 339 311 362 360 371 394 c 0
 378 421 384 452 384 481 c 0
 384 527 370 571 324 595 c 0
 308 604 289 609 267 609 c 0
 191 609 133 546 100 480 c 0
 75 430 55 369 55 311 c 0
 55 274 63 238 83 206 c 0
 99 180 125 158 150 141 c 0
 178 122 205 104 249 104 c 0
 300 104 348 128 394 148 c 0
 411 156 421 169 436 179 c 0
 440 182 447 182 449 176 c 0
 449 175 449 174 449 173 c 0
 449 163 434 153 428 148 c 0
 401 127 365 118 334 106 c 0
 309 96 282 91 255 91 c 0
 178 91 102 131 65 204 c 0
 48 238 40 277 40 316 c 0
 40 405 79 499 135 561 c 0
 170 599 221 625 271 625 c 0
 305 625 339 613 366 586 c 0
 391 561 401 522 401 480 c 0
 401 432 388 382 371 348 c 0
 360 327 331 278 300 278 c 0xbf80
 296 278 292 279 288 281 c 0
 263 293 257 322 248 346 c 1
 239 318 209 287 184 272 c 0
 178 268 170 266 163 266 c 0
 147 266 137 278 137 295 c 0
 137 304 139 312 141 320 c 0
 152 356 181 395 210 418 c 0
 218 424 230 429 242 429 c 0xdf80
235 413 m 1
 203 407 171 352 160 324 c 0
 158 318 153 305 153 295 c 0
 153 287 155 282 163 282 c 0
 164 282 165 282 166 282 c 0xdf80
 209 288 227 348 244 378 c 0
 248 384 252 394 252 402 c 0
 252 408 249 413 240 413 c 2
 235 413 l 1
EndSplineSet
Validated: 1
EndChar

StartChar: parenright
Encoding: 41 41 57
Width: 185
VWidth: 0
Flags: W
VStem: 55 27<6.18476 49.5348> 127 18<227.071 480.473>
LayerCount: 2
Back
Fore
SplineSet
47 736 m 2
 49 736 l 2
 62 736 74 711 78 702 c 0
 97 661 108 618 119 574 c 0
 136 503 145 426 145 349 c 0
 145 262 134 174 108 96 c 0
 96 60 85 36 82 29 c 0
 79 21 73 4 62 4 c 0
 57 4 55 8 55 13 c 0
 55 22 60 34 61 38 c 0
 62 42 77 59 89 92 c 0
 105 135 112 182 118 227 c 0
 124 270 127 314 127 358 c 0
 127 430 119 503 102 572 c 0
 92 615 81 659 61 698 c 0
 59 703 42 722 42 731 c 0
 42 734 43 735 47 736 c 2
EndSplineSet
Validated: 1
EndChar

StartChar: grave
Encoding: 96 96 58
Width: 183
VWidth: 0
Flags: W
HStem: 566 131
LayerCount: 2
Back
Fore
SplineSet
54 677 m 1
 31 673 40 706 56 697 c 0
 70 690 75 670 81 657 c 0
 93 633 105 614 124 595 c 0
 129 590 143 579 143 570 c 0
 143 569 143 567 142 566 c 0
 141 564 139 563 137 563 c 0
 128 563 114 580 110 584 c 0
 85 610 64 642 54 677 c 1
EndSplineSet
Validated: 1
EndChar

StartChar: a
Encoding: 97 97 59
Width: 417
VWidth: 0
Flags: HWO
HStem: 4 20<86.8868 156.222> 344 19<154.154 247.125>
VStem: 36 18<68.2399 192.521> 321 21<254 294.965>
LayerCount: 2
Back
Fore
SplineSet
332 295 m 0
 342 295 343 283 343 271 c 0
 343 260 342 247 342 240 c 0
 342 239 342 238 342 237 c 0
 346 183 355 127 368 74 c 0
 372 58 377 42 384 28 c 0
 388 22 395 16 393 9 c 0
 391 4 389 2 387 2 c 0
 376 2 360 33 358 38 c 0
 341 86 330 141 328 192 c 1
 325 192 l 1
 316 120 230 43 167 15 c 4
 152 8 130 1 111 1 c 4
 63 1 43 58 38 94 c 0
 37 104 36 115 36 126 c 0
 36 197 65 286 111 331 c 0
 133 353 164 366 196 366 c 0
 231 366 266 351 290 326 c 0
 317 299 313 281 321 254 c 1
 321 255 321 256 321 257 c 0
 321 268 321 295 332 295 c 0
54 121 m 0
 54 79 70 21 116 21 c 4
 141 21 168 35 188 49 c 4
 209 63 229 82 247 100 c 0
 272 125 303 178 308 214 c 0
 308 231 307 259 302 271 c 0
 280 322 261 346 197 347 c 2
 196 347 l 2
 106 347 69 243 58 167 c 0
 56 153 54 137 54 121 c 0
EndSplineSet
EndChar

StartChar: t
Encoding: 116 116 60
Width: 299
VWidth: 0
Flags: HW
HStem: -1 21<189.859 241.147> 356 17<40.335 133.719 150 178.125>
VStem: 128 18<106.938 360 378 462.594> 140 20<62.9753 136.282 382.875 582.053>
LayerCount: 2
Back
Fore
SplineSet
153 583 m 0xd0
 159 583 160 576 160 568 c 0xd0
 160 556 157 539 156 534 c 0
 152 482 150 414 150 362 c 1
 175 366 200 367 225 369 c 0
 231 370 247 372 247 362 c 0
 247 353 231 353 225 353 c 0
 200 351 175 347 150 346 c 1
 150 296 146 261 146 211 c 0
 146 170 149 128 159 88 c 0
 165 65 187 18 214 16 c 0
 221 15 227 20 234 20 c 0
 239 20 245 17 242 11 c 0
 238 2 225 -1 215 -1 c 0
 178 -1 155 47 145 76 c 0
 132 117 128 159 128 202 c 0xe0
 128 255 134 292 134 344 c 1
 121 341 107 340 92 340 c 0
 82 340 71 341 62 341 c 0
 55 341 41 341 40 350 c 0
 39 361 54 357 60 357 c 0
 63 357 65 357 68 357 c 0
 83 357 91 357 107 357 c 0
 113 357 128 359 134 358 c 1
 135 412 138 482 140 536 c 0
 140 545 140 583 153 583 c 0xd0
EndSplineSet
EndChar

StartChar: y
Encoding: 121 121 61
Width: 333
VWidth: 0
Flags: HW
HStem: -194 21<111.692 224.398>
VStem: 36 18<185.641 364.942> 270 17<128.1 218.673> 285 16<-78.1928 117.823>
LayerCount: 2
Back
Fore
SplineSet
272 219 m 1xe0
 261 206 258 184 250 169 c 0
 220 105 184 48 127 13 c 0
 3 -57 28 234 36 344 c 4
 36 352 35 368 45 369 c 4
 54 370 54 358 54 351 c 4
 54 331 51 307 50 287 c 0
 48 254 45 219 45 184 c 0
 45 147 48 110 55 76 c 0
 59 53 71 20 93 20 c 0
 96 20 100 21 103 22 c 0
 186 53 238 171 261 257 c 0
 267 283 268 323 272 349 c 4
 273 357 277 371 287 367 c 4
 296 363 295 346 294 338 c 4
 291 310 287 272 287 242 c 0
 287 237 287 232 287 228 c 0xe0
 292 158 301 85 301 14 c 0
 301 -60 296 -128 253 -170 c 0
 235 -188 207 -194 179 -194 c 0
 151 -194 123 -188 101 -181 c 0
 91 -177 57 -172 57 -157 c 0
 57 -151 60 -149 66 -149 c 0
 77 -149 96 -158 101 -159 c 0
 123 -167 150 -173 176 -173 c 0
 207 -173 237 -164 256 -134 c 0
 278 -97 285 -50 285 -2 c 0xd0
 285 44 279 91 276 131 c 0
 275 150 270 176 270 198 c 0
 270 206 271 212 272 219 c 1xe0
EndSplineSet
EndChar

StartChar: F
Encoding: 70 70 62
Width: 363
VWidth: 0
Flags: W
HStem: 332 18<59.939 256.986> 648 17<130.276 322.344>
VStem: 48 17<4.15224 332.426 352.516 617.107>
LayerCount: 2
Back
Fore
SplineSet
237 350 m 0
 248 350 257 349 257 341 c 0
 257 333 238 332 225 332 c 2
 213 332 l 2
 162 332 110 334 59 334 c 1
 62 324 62 313 62 302 c 0
 62 287 61 271 61 258 c 0
 61 213 64 113 64 68 c 0
 64 50 64 32 65 14 c 0
 65 9 63 2 56 4 c 0
 46 7 48 26 48 34 c 2
 47 188 l 2
 47 239 40 291 40 342 c 2
 40 356 l 2
 40 410 45 467 45 522 c 0
 45 550 44 578 43 606 c 0
 43 614 38 627 44 634 c 0
 56 647 85 651 101 653 c 0
 152 660 206 664 257 664 c 0
 263 664 274 665 286 665 c 0
 304 665 323 663 323 654 c 2
 323 652 l 2
 321 645 313 646 308 647 c 0
 300 648 291 648 282 648 c 2
 235 648 l 2
 176 648 105 646 57 618 c 1
 63 599 65 577 65 555 c 0
 65 520 60 483 60 451 c 0
 60 431 62 409 62 388 c 0
 62 375 62 363 59 352 c 1
 79 347 101 346 123 346 c 0
 152 346 181 348 207 348 c 0
 212 348 226 350 237 350 c 0
EndSplineSet
Validated: 1
EndChar

StartChar: U
Encoding: 85 85 63
Width: 497
VWidth: 0
Flags: W
HStem: 7 16<184.653 264.479> 650 20G<52.5 56.5>
VStem: 43 18<356.776 667.856> 427 22<570.594 658.202> 439 17<388.968 626.489>
LayerCount: 2
Back
Fore
SplineSet
427 648 m 0xf0
 427 654 429 659 435 659 c 0
 447 659 448 627 449 619 c 0xf0
 454 591 456 561 456 531 c 0
 456 513 455 495 454 478 c 0
 444 355 445 218 379 112 c 0
 346 59 305 7 223 7 c 0
 187 7 154 21 127 55 c 0
 112 74 103 97 94 119 c 0
 51 227 51 357 49 473 c 0
 48 522 45 570 45 619 c 0
 45 625 43 637 43 648 c 0
 43 657 44 665 48 668 c 0
 50 670 52 670 53 670 c 0
 60 670 61 653 61 643 c 0
 61 640 61 637 61 636 c 0
 61 594 62 549 64 507 c 0
 70 385 64 258 103 140 c 0
 121 84 157 23 221 23 c 0
 286 23 334 70 368 127 c 0
 433 241 439 386 439 527 c 0xe8
 439 557 438 587 433 617 c 0
 432 622 427 637 427 648 c 0xf0
EndSplineSet
Validated: 1
EndChar

StartChar: four
Encoding: 52 52 64
Width: 377
VWidth: 0
Flags: W
HStem: 286 18<57.0262 316.891>
VStem: 40 17<304.07 337.993> 168 19<592.918 649.765> 307 17<456.448 674.965> 319 17<3.36551 296 306 467.336>
LayerCount: 2
Back
Fore
SplineSet
66 286 m 0xe8
 50 286 40 293 40 309 c 0
 40 333 63 369 70 384 c 0
 101 451 134 518 157 588 c 0
 161 601 166 615 168 628 c 0
 169 635 165 643 168 649 c 0
 171 656 180 655 183 650 c 0
 186 645 187 639 187 633 c 0
 187 608 169 573 163 556 c 0
 142 501 119 445 93 392 c 0
 81 367 57 333 57 306 c 2
 57 304 l 1
 240 307 l 1
 319 306 l 1xe8
 319 412 308 518 308 624 c 0
 308 629 307 641 307 652 c 0
 307 664 308 675 315 675 c 0
 324 675 324 663 324 651 c 2
 324 636 l 2xf0
 327 597 324 557 328 518 c 0
 335 441 336 363 336 285 c 0
 336 215 336 146 336 76 c 0
 336 69 336 5 327 3 c 0
 320 3 319 56 319 61 c 2
 319 296 l 1
 308 289 293 288 277 288 c 0
 256 288 233 291 215 291 c 2
 211 291 l 2
 172 290 132 289 93 288 c 0
 86 288 76 286 66 286 c 0xe8
EndSplineSet
Validated: 1
EndChar

StartChar: endash
Encoding: 8211 8211 65
Width: 334
VWidth: 0
Flags: W
HStem: 319 17<101.997 291.665> 330 14<40.9763 163.986>
LayerCount: 2
Back
Fore
SplineSet
44 344 m 0x40
 49 347 56 348 64 348 c 0
 78 348 95 345 105 344 c 0x40
 151 340 199 336 245 336 c 0
 256 336 268 340 279 340 c 0
 288 340 299 335 292 327 c 0
 285 320 269 319 254 319 c 0x80
 244 319 235 320 229 320 c 0
 169 323 108 325 49 330 c 0
 41 331 36 339 44 344 c 0x40
EndSplineSet
Validated: 1
EndChar

StartChar: slash
Encoding: 47 47 66
Width: 392
VWidth: 0
Flags: W
LayerCount: 2
Back
Fore
SplineSet
336 648 m 0
 352 657 341 624 339 620 c 0
 325 589 310 558 294 528 c 0
 230 408 163 289 102 168 c 0
 85 134 69 100 57 64 c 0
 54 55 52 30 42 27 c 0
 41 27 40 26 39 26 c 0
 34 26 33 30 33 35 c 0
 33 45 38 59 39 62 c 0
 51 99 68 135 85 170 c 0
 114 230 147 287 179 346 c 0
 211 406 241 467 274 526 c 0
 290 555 305 584 318 614 c 0
 322 623 327 643 336 648 c 0
EndSplineSet
Validated: 1
EndChar

StartChar: asterisk
Encoding: 42 42 67
Width: 314
VWidth: 0
Flags: W
HStem: 531 1<45.0938 51.8601> 541 15<70.0647 130.892> 546 17<197.727 266.244>
VStem: 153 16<401.097 509.438 560 649.124>
LayerCount: 2
Back
Fore
SplineSet
153 560 m 1xd0
 153 587 154 614 157 641 c 0
 158 648 161 668 173 662 c 0
 183 657 174 644 173 636 c 0
 170 610 169 584 169 558 c 1
 195 578 218 606 239 632 c 0
 245 640 256 658 267 658 c 0
 284 658 262 634 259 630 c 0
 240 605 219 582 197 560 c 1
 214 560 232 563 250 563 c 0
 252 563 254 563 256 563 c 0
 263 562 271 556 264 550 c 0
 258 545 246 546 239 546 c 0xb0
 219 545 196 547 177 540 c 1
 177 538 l 1
 202 522 223 502 249 488 c 0
 255 485 270 478 265 469 c 0
 264 467 262 466 259 466 c 0
 238 466 178 516 169 524 c 1
 169 432 l 2
 169 428 170 422 170 416 c 0
 170 409 169 403 164 401 c 0
 151 396 153 418 153 424 c 0
 152 440 152 457 152 474 c 0
 152 486 152 498 153 510 c 1
 137 493 123 475 110 456 c 0
 107 451 99 441 92 446 c 0
 84 452 96 467 100 472 c 0
 116 495 136 516 153 538 c 1
 146 540 137 541 129 541 c 0
 112 541 93 538 78 535 c 0
 71 534 60 531 52 531 c 0
 49 531 47 531 45 532 c 0
 31 538 49 547 56 548 c 0
 81 552 106 556 131 556 c 1
 116 573 102 591 87 608 c 0
 83 612 72 623 83 627 c 0
 91 630 100 619 104 614 c 0
 120 595 135 577 153 560 c 1xd0
EndSplineSet
Validated: 1
EndChar

StartChar: braceleft
Encoding: 123 123 68
Width: 387
VWidth: 0
Flags: W
HStem: -8 15<224.66 278.476> 381 15<77.4399 105.891> 673 14<186.427 241.738>
VStem: 108 13<534.68 611.507> 115 11<322.014 366.009> 150 13<341.973 415.556>
LayerCount: 2
Back
Fore
SplineSet
98 396 m 0xec
 125 396 126 352 126 322 c 1xec
 144 335 150 352 150 371 c 0
 150 386 146 403 143 419 c 0
 134 464 108 524 108 576 c 0
 108 643 163 687 221 687 c 0
 234 687 260 684 260 669 c 0
 260 663 255 661 251 662 c 0
 239 666 235 673 223 673 c 0
 174 673 121 638 121 579 c 0xf4
 121 549 132 517 140 491 c 0
 149 459 155 426 161 394 c 0
 162 387 163 380 163 372 c 0
 163 344 153 313 126 308 c 1
 133 257 142 162 153 111 c 0
 157 93 158 67 170 53 c 0
 189 31 227 7 256 7 c 0
 271 7 279 18 293 18 c 0
 296 18 299 17 299 13 c 0
 299 0 269 -8 258 -8 c 0
 227 -8 186 16 164 39 c 0
 148 55 147 80 142 102 c 0
 130 154 120 250 114 303 c 1
 105 299 95 296 85 296 c 0
 63 296 51 324 51 347 c 0
 51 370 74 396 98 396 c 0xec
95 381 m 0
 81 381 65 365 63 352 c 0
 61 334 70 306 90 310 c 0
 96 311 110 314 113 320 c 0
 115 324 115 330 115 336 c 0
 115 355 108 381 95 381 c 0
EndSplineSet
Validated: 33
EndChar

StartChar: g
Encoding: 103 103 69
Width: 343
VWidth: 0
Flags: HW
HStem: -196 20<145.827 231.107> -153 49<35.0293 69.2308> 4 19<61.2669 140.807> 357 16<174.245 249.279>
VStem: 15 19<55.7625 163.392> 287 27<197.315 331.772> 287 18<186.93 282.639> 297 14<-49.7148 148.077>
LayerCount: 2
Back
Fore
SplineSet
287 161 m 1xfa
 266 85 201 28 131 10 c 0
 118 7 105 4 92 4 c 0
 72 4 54 10 38 28 c 0
 21 47 15 74 15 101 c 0
 15 123 19 145 24 164 c 0
 40 232 74 293 128 336 c 0
 152 355 184 367 214 367 c 0
 242 367 270 357 292 336 c 0
 309 320 314 300 314 278 c 0xfc
 314 249 305 224 305 196 c 0xfa
 305 194 306 193 306 191 c 0
 309 111 311 109 311 29 c 0
 311 -47 305 -116 262 -167 c 0
 243 -189 220 -196 196 -196 c 0
 155 -196 110 -172 75 -153 c 0
 61 -146 23 -130 20 -113 c 2
 20 -109 l 2
 20 -105 22 -104 26 -104 c 0
 38 -104 63 -121 66 -124 c 0
 100 -145 149 -176 193 -176 c 0
 214 -176 234 -169 250 -150 c 0
 286 -106 296 -40 296 26 c 0
 296 52 297 52 297 54 c 0xf9
 297 56 296 59 295 75 c 0
 293 103 295 134 287 161 c 1xfa
199 350 m 0
 107 335 55 229 38 142 c 0
 36 131 34 119 34 107 c 0
 34 66 48 23 91 23 c 0
 94 23 97 23 100 23 c 0
 191 34 259 106 282 200 c 0
 286 215 287 231 287 247 c 2
 287 277 l 2
 287 284 289 293 289 301 c 0
 289 305 289 309 287 312 c 0
 276 337 238 351 211 351 c 0
 206 351 203 351 199 350 c 0
EndSplineSet
EndChar

StartChar: i
Encoding: 105 105 70
Width: 131
VWidth: 0
Flags: HW
HStem: 4 15<71.015 89.627> 338 20G<49.5 60>
VStem: 40 16<67.3296 332.896>
LayerCount: 2
Back
Fore
SplineSet
50.5400390625 511.099609375 m 0
 71.53515625 516.719726562 74.7646484375 487.21484375 57 483 c 0
 37.6201171875 478.78515625 31.16015625 505.48046875 50.5400390625 511.099609375 c 0
72 17 m 5
 77 20 98 28 92 13 c 4
 89 6 82 2 75 2 c 4
 57 2 52 23 51 38 c 4
 45 83 40 162 40 219 c 0
 40 238 41 257 42 272 c 0
 43 286 42 369 57 369 c 0
 63 369 65 363 65 358 c 0
 64 341 59 290 58 273 c 0
 57 254 56 231 56 207 c 0
 56 147 61 64 72 17 c 5
EndSplineSet
EndChar

StartChar: z
Encoding: 122 122 71
Width: 338
VWidth: 0
Flags: W
HStem: 4 17<56.5861 293.017> 347 18<66.145 237.324>
VStem: 37 257<7.30691 20.9908>
LayerCount: 2
Back
Fore
SplineSet
65 4 m 0
 51 4 37 7 37 21 c 0
 37 43 70 87 79 102 c 0
 124 175 201 270 252 337 c 1
 213 343 173 347 130 347 c 0
 112 347 91 344 73 346 c 0
 67 347 62 352 66 358 c 0
 69 363 78 364 86 364 c 0
 90 364 95 364 98 364 c 0
 107 364 115 365 124 365 c 0
 156 365 190 360 222 357 c 0
 234 356 269 357 271 341 c 0
 272 332 263 323 258 317 c 0
 210 263 143 172 104 110 c 0
 89 86 67 48 56 22 c 1
 61 21 66 21 71 21 c 0
 87 21 104 24 120 24 c 0
 147 24 173 24 199 24 c 0
 212 24 225 24 238 24 c 0
 244 24 256 25 268 25 c 0
 282 25 294 23 294 16 c 0
 294 3 265 2 251 2 c 0
 210 2 168 7 126 7 c 0
 115 7 103 6 92 6 c 0
 86 6 75 4 65 4 c 0
EndSplineSet
Validated: 33
EndChar

StartChar: I
Encoding: 73 73 72
Width: 121
VWidth: 0
Flags: W
HStem: 6 21G<62 76.5>
VStem: 40 18<146.362 608.92> 47 17<42.4395 420.592 426.828 663.756>
LayerCount: 2
Back
Fore
SplineSet
81 13 m 0xc0
 81 9 79 6 74 6 c 0
 50 6 47 117 47 142 c 0xa0
 46 235 40 331 40 425 c 0xc0
 40 464 41 503 44 542 c 0
 47 572 44 603 47 633 c 0
 48 641 45 659 54 664 c 0
 66 670 64 644 64 639 c 0xa0
 63 607 60 574 60 542 c 0
 59 481 58 420 58 358 c 0
 58 289 59 220 63 151 c 0
 65 114 63 75 73 39 c 0
 74 34 81 21 81 13 c 0xc0
EndSplineSet
Validated: 33
EndChar

StartChar: V
Encoding: 86 86 73
Width: 487
VWidth: 0
Flags: W
HStem: 6 21G<218 229>
LayerCount: 2
Back
Fore
SplineSet
437 671 m 0
 441 671 444 665 444 661 c 0
 444 653 438 642 437 636 c 0
 427 604 427 607 420 575 c 0
 387 431 328 293 280 154 c 0
 267 116 251 78 240 40 c 0
 237 30 235 6 223 6 c 0
 213 6 209 23 205 31 c 0
 192 60 182 91 173 122 c 0
 135 252 97 385 70 518 c 0
 63 554 54 590 44 626 c 0
 43 631 37 643 37 652 c 0
 37 655 38 658 40 660 c 0
 53 670 58 639 60 632 c 0
 69 594 77 555 86 518 c 0
 104 436 128 356 149 275 c 0
 171 194 191 113 221 35 c 1
 251 110 274 190 301 267 c 0
 334 362 372 455 398 552 c 0
 409 593 408 599 420 639 c 0
 422 644 428 671 437 671 c 0
EndSplineSet
Validated: 33
EndChar

StartChar: five
Encoding: 53 53 74
Width: 375
VWidth: 0
Flags: W
HStem: 15 18<91.2195 169.995> 420 16<143.023 212.285> 657 18<123.55 313.944>
VStem: 76 12<404.124 600.25> 316 19<168.29 295.971>
LayerCount: 2
Back
Fore
SplineSet
96 394 m 1
 114 415 137 436 175 436 c 0
 220 436 267 407 291 372 c 0
 319 332 335 280 335 228 c 0
 335 183 323 139 297 104 c 0
 254 47 182 17 112 15 c 2
 110 15 l 2
 88 15 67 34 52 49 c 0
 47 54 38 64 40 72 c 0
 43 83 55 72 59 68 c 0
 82 43 102 33 127 33 c 0
 140 33 154 36 170 40 c 0
 266 65 316 145 316 231 c 0
 316 261 310 291 299 320 c 0
 282 366 231 420 177 420 c 0
 142 420 119 399 106 376 c 0
 103 370 98 360 90 362 c 0
 77 366 76 402 76 418 c 2
 76 424 l 2
 74 468 74 511 72 555 c 0
 71 569 70 585 70 601 c 0
 70 610 70 618 72 626 c 1
 63 624 51 629 60 640 c 0
 66 647 77 654 86 657 c 0
 125 672 172 674 215 674 c 2
 254 674 l 2
 270 674 285 675 301 675 c 0
 306 675 315 673 314 666 c 0
 313 659 299 657 285 657 c 0
 274 657 264 658 260 658 c 0
 201 658 143 655 86 640 c 1
 90 619 91 597 91 575 c 0
 91 540 88 506 88 471 c 0
 88 445 90 419 96 394 c 1
EndSplineSet
Validated: 1
EndChar

StartChar: emdash
Encoding: 8212 8212 75
Width: 487
VWidth: 0
Flags: W
HStem: 330 16<40.008 178.906> 340 15<162.654 445.614>
LayerCount: 2
Back
Fore
SplineSet
74 346 m 0x80
 121 348 166 355 215 355 c 0
 230 355 244 354 259 354 c 0
 268 354 277 354 286 355 c 0x40
 326 358 368 358 408 354 c 0
 413 353 446 355 446 346 c 0x80
 446 334 424 337 416 338 c 0
 398 339 381 340 363 340 c 2
 344 340 l 2x40
 267 337 189 334 112 332 c 0
 94 331 76 330 58 330 c 0
 51 330 40 329 40 338 c 0
 40 345 50 347 60 347 c 0
 66 347 71 346 74 346 c 0x80
EndSplineSet
Validated: 33
EndChar

StartChar: backslash
Encoding: 92 92 76
Width: 383
VWidth: 0
Flags: W
VStem: 322 21<-4.69482 51.832>
LayerCount: 2
Back
Fore
SplineSet
49 674 m 0
 59 674 64 652 67 644 c 0
 81 613 94 581 109 550 c 0
 172 416 238 283 294 146 c 0
 309 108 328 71 339 32 c 0
 340 28 343 17 343 8 c 0
 343 1 341 -5 334 -5 c 0
 324 -5 324 22 322 30 c 0
 310 69 292 107 276 144 c 0
 217 280 154 413 92 548 c 0
 77 580 63 612 48 644 c 0
 45 651 32 674 49 674 c 0
EndSplineSet
Validated: 1
EndChar

StartChar: plus
Encoding: 43 43 77
Width: 373
VWidth: 0
Flags: HW
HStem: 342 16<40.4029 166> 353 18<196.336 331.9>
VStem: 159 17<361.688 502.857> 167 15<273.989 343.718 360 476.25> 174 16<210.148 322.732>
LayerCount: 2
Back
Fore
SplineSet
159 323 m 4xa0
 159 332 161 340 169 340 c 4
 175 340 176 330 176 321 c 6
 176 308 l 6xa0
 177 271 182 234 182 197 c 5
 220 203 260 205 298 207 c 4
 301 207 306 208 312 208 c 4
 322 208 332 206 332 199 c 6
 332 197 l 6
 330 191 320 190 311 190 c 6
 296 190 l 5
 258 186 220 185 182 181 c 5x50
 191 150 189 109 190 77 c 4
 190 70 195 47 183 47 c 4
 175 47 174 59 174 69 c 6
 174 77 l 6x48
 172 104 167 134 167 161 c 4x50
 167 168 167 175 168 181 c 5
 140 181 111 179 83 179 c 6
 65 179 l 6
 56 179 40 180 40 189 c 6
 40 191 l 6
 43 204 62 195 70 195 c 4
 78 195 85 194 93 194 c 6
 166 197 l 5
 166 233 162 269 160 305 c 4
 160 309 159 317 159 323 c 4xa0
EndSplineSet
EndChar

StartChar: bar
Encoding: 124 124 78
Width: 111
VWidth: 0
Flags: W
VStem: 44 18<393.01 661.452> 55 15<4.8457 247.5>
LayerCount: 2
Back
Fore
SplineSet
40 634 m 0x80
 40 646 41 662 51 662 c 0
 57 662 58 651 58 639 c 0
 58 628 57 616 57 613 c 0
 57 560 61 506 61 453 c 0
 61 448 62 435 62 422 c 0
 62 407 62 393 53 393 c 0
 46 393 44 405 44 418 c 0
 44 430 45 443 45 449 c 0
 45 502 41 556 41 609 c 0
 41 614 40 624 40 634 c 0x80
69 36 m 0
 69 22 68 3 58 3 c 0
 52 3 50 14 50 25 c 0
 50 35 52 45 52 49 c 0
 54 74 55 99 55 125 c 0
 55 154 54 184 53 213 c 0
 53 220 47 242 47 257 c 0
 47 264 49 270 53 271 c 0
 68 273 69 225 69 215 c 0
 70 188 70 161 70 134 c 0x40
 70 107 70 79 69 52 c 0
 69 49 69 43 69 36 c 0
EndSplineSet
Validated: 33
EndChar

StartChar: s
Encoding: 115 115 79
Width: 311
VWidth: 0
Flags: HWO
HStem: 4 16<97.2752 208.48> 357 17<126.145 225.579>
VStem: 74 15<276.291 325.612> 263 15<58.5437 105.275>
LayerCount: 2
Back
Fore
SplineSet
278 82 m 0
 278 26 210 4 149 4 c 0
 97 4 55 22 35 57 c 0
 32 62 27 72 35 75 c 0
 41 78 46 71 49 67 c 0
 59 53 69 41 84 33 c 0
 101 25 126 20 152 20 c 0
 196 20 242 33 259 63 c 0
 262 68 263 74 263 80 c 0
 263 99 249 118 236 130 c 0
 196 164 132 204 95 243 c 4
 80 258 74 275 74 290 c 4
 74 326 109 357 151 364 c 4
 159 365 167 365 175 365 c 4
 196 365 219 362 237 355 c 4
 242 353 259 341 259 332 c 4
 259 329 257 327 253 326 c 6
 251 326 l 6
 242 326 227 341 218 343 c 4
 205 346 189 348 173 348 c 4
 133 348 90 335 89 290 c 6
 89 289 l 6
 89 269 110 250 125 239 c 4
 164 210 225 171 258 133 c 0
 271 118 278 100 278 82 c 0
EndSplineSet
EndChar

StartChar: j
Encoding: 106 106 80
Width: 124
VWidth: 0
Flags: HWO
HStem: -160 17<-37.4664 34.3412>
VStem: 69 14<-53.9835 359.324>
LayerCount: 2
Back
Fore
SplineSet
61.75 510.379882812 m 0
 79.25 519.5 88 488.719726562 71.75 480.740234375 c 0
 53 471.620117188 48 503.540039062 61.75 510.379882812 c 0
-90 -105 m 0
 -90 -102 -88 -99 -84 -99 c 0
 -73 -99 -49 -128 -41 -132 c 0
 -30 -138 -14 -142 2 -142 c 0
 17 -142 31 -138 40 -129 c 0
 53 -115 56 -93 59 -75 c 0
 67 -25 69 26 69 77 c 0
 69 128 67 179 67 229 c 0
 67 252 67 312 64 335 c 0
 63 342 59 357 66 362 c 0
 79 370 79 348 80 341 c 0
 83 314 83 250 83 223 c 0
 83 186 83 149 83 112 c 0
 83 57 82 2 77 -53 c 0
 74 -83 73 -132 43 -149 c 0
 31 -156 17 -159 2 -159 c 0
 -21 -159 -45 -152 -61 -140 c 0
 -67 -136 -90 -117 -90 -105 c 0
EndSplineSet
EndChar

StartChar: C
Encoding: 67 67 81
Width: 414
VWidth: 0
Flags: W
HStem: 3 18<170.917 277.446> 656 15<203.106 263.636>
VStem: 33 16<225.551 397.355> 342 16<513.1 569.234>
LayerCount: 2
Back
Fore
SplineSet
223 670 m 0
 227 671 230 671 234 671 c 0
 282 671 330 624 348 582 c 0
 355 565 356 548 358 530 c 0
 359 525 361 515 354 513 c 0
 347 511 343 518 342 523 c 0
 338 539 340 554 334 570 c 0
 320 606 278 656 234 656 c 0
 231 656 227 656 223 655 c 0
 153 640 118 574 91 513 c 0
 64 449 49 379 49 309 c 0
 49 259 56 209 72 162 c 0
 84 126 99 90 124 61 c 0
 148 33 185 21 223 21 c 0
 251 21 280 28 302 41 c 0
 326 55 346 68 362 91 c 0
 366 96 378 103 378 90 c 0
 378 81 368 69 364 64 c 0
 343 40 309 23 280 12 c 0
 264 6 246 3 227 3 c 0
 188 3 146 16 120 40 c 0
 91 67 75 108 62 145 c 0
 43 199 33 257 33 316 c 0
 33 399 53 483 93 555 c 0
 125 611 155 659 223 670 c 0
EndSplineSet
Validated: 1
EndChar

StartChar: J
Encoding: 74 74 82
Width: 350
VWidth: 0
Flags: W
HStem: 5 14<174.934 238.207> 648 20G<282 290.5>
VStem: 278 18<513.875 667.88> 291 18<136.594 575.675>
LayerCount: 2
Back
Fore
SplineSet
288 464 m 0xd0
 288 523 281 577 278 633 c 0
 278 636 278 641 278 647 c 0
 278 657 279 667 285 668 c 2
 286 668 l 2
 295 668 296 654 296 643 c 0
 296 641 296 639 296 637 c 0
 296 635 296 633 296 632 c 0xe0
 300 592 302 552 303 512 c 0
 305 441 309 368 309 295 c 0
 309 238 307 182 299 127 c 0
 293 84 283 14 231 6 c 0
 225 5 218 5 211 5 c 0
 157 5 95 32 63 73 c 0
 50 89 42 112 39 133 c 0
 38 139 36 152 43 156 c 0
 48 159 52 154 53 149 c 0
 59 129 60 111 72 92 c 0
 80 80 93 70 105 62 c 0
 130 46 174 19 211 19 c 0
 231 19 248 27 259 48 c 0
 284 96 288 155 290 209 c 0
 291 228 291 246 291 264 c 0
 291 313 288 361 288 411 c 0
 288 428 288 446 288 464 c 0xd0
EndSplineSet
Validated: 1
EndChar

StartChar: W
Encoding: 87 87 83
Width: 632
VWidth: 0
Flags: W
HStem: 12 18<180.052 235.098> 20 17<408.5 457.655> 650 20G<578 586>
VStem: 40 16<404.6 643.516> 314 17<190.489 273.902> 574 18<452.979 669.645>
LayerCount: 2
Back
Fore
SplineSet
574 658 m 0x7c
 574 665 575 670 581 670 c 0
 591 670 592 650 592 640 c 0
 592 638 592 637 592 636 c 0
 592 594 592 551 588 510 c 0
 578 400 574 286 546 178 c 0
 533 128 516 74 477 38 c 0
 463 25 449 20 434 20 c 0x7c
 417 20 400 27 385 41 c 0
 354 70 324 129 324 174 c 0
 324 177 325 181 325 184 c 1
 316 172 316 149 311 134 c 0
 299 94 278 45 241 22 c 0
 230 15 219 12 208 12 c 0
 164 12 125 62 111 100 c 0
 95 142 88 187 79 230 c 0
 59 321 41 416 41 510 c 0
 41 533 40 556 40 579 c 0
 40 594 40 610 42 625 c 0
 43 635 42 656 52 662 c 0
 58 665 69 660 68 652 c 0
 67 645 60 641 59 634 c 0
 57 616 56 597 56 579 c 0
 56 557 57 536 57 514 c 0
 58 392 83 266 113 148 c 0
 126 98 147 41 204 30 c 0
 206 30 208 30 210 30 c 0xbc
 231 30 248 48 259 64 c 0
 299 120 309 181 314 259 c 0
 314 264 315 272 321 274 c 0
 329 276 330 265 331 260 c 0
 339 185 344 124 385 68 c 0
 400 49 416 37 433 37 c 0
 458 37 480 64 492 84 c 0
 524 138 538 205 546 267 c 0
 558 354 564 439 572 526 c 0
 576 562 575 600 576 636 c 0
 576 641 574 650 574 658 c 0x7c
EndSplineSet
Validated: 1
EndChar

StartChar: six
Encoding: 54 54 84
Width: 438
VWidth: 0
Flags: W
HStem: 40 16<153.68 264.824> 388 15<244.855 316.854>
VStem: 40 16<232.094 388.19> 384 14<194.722 304.49>
LayerCount: 2
Back
Fore
SplineSet
205 680 m 0
 208 680 213 677 213 673 c 0
 213 664 193 652 190 648 c 0
 164 617 142 581 122 546 c 0
 81 475 56 391 56 308 c 0
 56 247 70 186 101 132 c 1
 117 226 140 326 223 387 c 0
 238 398 258 403 279 403 c 0
 313 403 349 389 367 364 c 0
 390 332 398 290 398 250 c 2
 398 236 l 2
 395 184 373 110 331 77 c 0
 302 55 266 46 231 42 c 0
 221 41 211 40 200 40 c 0
 180 40 159 43 141 54 c 0
 103 78 79 130 64 172 c 0
 48 218 40 265 40 312 c 0
 40 401 68 490 115 568 c 0
 134 599 154 632 178 660 c 0
 183 666 194 680 205 680 c 0
384 255 m 0
 384 325 346 388 280 388 c 0
 225 388 196 341 173 304 c 0
 165 291 156 278 149 264 c 0
 131 229 124 188 119 149 c 0
 118 140 116 129 116 119 c 0
 116 87 142 65 167 59 c 0
 178 56 190 56 201 56 c 0
 253 56 297 66 327 94 c 0
 365 129 384 200 384 255 c 0
EndSplineSet
Validated: 1
EndChar

StartChar: equal
Encoding: 61 61 85
Width: 244
VWidth: 0
Flags: W
HStem: 256 15<47.4729 107.062> 262 17<52.4255 182.672> 406 12<40.463 177.312>
LayerCount: 2
Back
Fore
SplineSet
179 423 m 0x20
 186 424 216 420 200 409 c 0
 196 406 190 406 184 406 c 2
 168 406 l 2
 138 404 108 402 78 402 c 0
 74 402 67 401 60 401 c 0
 52 401 45 402 42 407 c 0
 33 421 64 418 70 418 c 0
 106 418 143 419 179 423 c 0x20
85 277 m 0
 98 278 112 279 126 279 c 0
 144 279 162 278 180 278 c 0
 186 278 214 274 198 264 c 0
 194 262 189 261 183 261 c 0
 176 261 169 262 164 262 c 0x60
 138 262 111 261 85 260 c 0
 78 260 67 256 58 256 c 0
 48 256 43 266 52 271 c 0xa0
 61 277 75 276 85 277 c 0
EndSplineSet
Validated: 1
EndChar

StartChar: asciitilde
Encoding: 126 126 86
Width: 336
VWidth: 0
Flags: W
HStem: 276 16<180.046 235.323> 347 19<70.2341 107.714>
LayerCount: 2
Back
Fore
SplineSet
286 366 m 0
 303 371 295 340 292 334 c 0
 282 313 255 290 234 281 c 0
 226 278 218 276 210 276 c 0
 178 276 152 301 128 321 c 0
 118 329 100 347 86 347 c 0
 72 347 62 326 58 316 c 0
 56 311 55 301 48 300 c 0
 37 299 40 314 42 320 c 0
 48 337 62 366 83 366 c 0
 85 366 86 365 88 365 c 0
 132 355 162 292 208 292 c 0
 237 292 260 318 274 338 c 0
 278 344 278 364 286 366 c 0
EndSplineSet
Validated: 33
EndChar

StartChar: comma
Encoding: 44 44 87
Width: 114
VWidth: 0
Flags: W
HStem: -8 108
VStem: 57 17<21.5156 99.6463>
LayerCount: 2
Back
Fore
SplineSet
56 100 m 0
 58 101 60 102 61 102 c 0
 73 102 74 67 74 52 c 0
 74 29 70 1 51 -8 c 0
 46 -10 40 -9 40 -2 c 0
 41 7 50 13 53 21 c 0
 57 32 57 43 57 55 c 2
 57 68 l 2
 57 74 53 84 53 92 c 0
 53 96 54 98 56 100 c 0
EndSplineSet
Validated: 1
EndChar

StartChar: braceright
Encoding: 125 125 88
Width: 298
VWidth: 0
Flags: W
HStem: -7 16<62.5346 130.037> 414 17<202.719 235.393> 676 17<56.7806 102.078>
VStem: 111 17<389.565 536.368> 123 16<501.713 647.643> 148 14<48.6875 247.11>
LayerCount: 2
Back
Fore
SplineSet
218 431 m 0xf4
 240 431 258 409 258 381 c 0
 258 346 233 307 199 307 c 0
 191 307 183 309 174 314 c 1
 169 252 165 190 162 128 c 0
 160 92 163 56 152 20 c 0
 145 -1 129 -7 111 -7 c 0
 102 -7 93 -6 84 -4 c 0
 77 -3 60 -2 57 6 c 0
 51 24 98 9 109 9 c 0
 122 9 134 14 138 32 c 0
 146 68 148 105 148 142 c 0
 148 162 147 183 147 203 c 0
 147 244 149 285 160 324 c 1
 139 334 126 367 119 388 c 0
 113 407 111 426 111 446 c 0xf4
 111 493 123 541 123 587 c 0
 123 614 122 651 100 670 c 0
 95 674 89 676 82 676 c 0
 77 676 71 675 66 673 c 0
 60 670 49 661 43 667 c 0
 41 669 40 670 40 672 c 0
 40 685 70 693 80 693 c 0
 125 693 139 641 139 592 c 0xec
 139 545 128 495 128 449 c 0
 128 411 135 376 162 344 c 1
 172 375 178 431 218 431 c 0xf4
176 330 m 1
 217 308 253 356 240 396 c 0
 236 409 228 414 220 414 c 0
 211 414 201 407 195 396 c 0
 184 377 183 353 176 330 c 1
EndSplineSet
Validated: 33
EndChar

StartChar: c
Encoding: 99 99 89
Width: 340
VWidth: 0
Flags: W
HStem: -5 15<147.229 236.779> 356 16<131.511 213.897>
VStem: 41 16<120.273 255.035> 254 24<279.373 336.083>
LayerCount: 2
Back
Fore
SplineSet
41 184 m 0
 41 274 77 372 166 372 c 0
 200 372 251 360 268 338 c 0
 272 332 278 317 278 302 c 0
 278 295 276 278 268 278 c 0
 261 278 259 319 254 326 c 0
 241 344 193 356 165 356 c 0
 124 356 94 324 78 294 c 0
 64 269 57 231 57 191 c 0
 57 131 73 67 108 38 c 0
 130 20 162 10 193 10 c 0
 214 10 235 15 252 24 c 0
 273 35 278 51 288 71 c 0
 290 75 294 80 299 77 c 0
 306 73 301 61 299 55 c 0
 291 35 280 20 260 10 c 0
 240 0 218 -5 196 -5 c 0
 156 -5 114 4 86 35 c 0
 57 67 41 125 41 184 c 0
EndSplineSet
Validated: 1
EndChar

StartChar: m
Encoding: 109 109 90
Width: 504
VWidth: 0
Flags: HWO
HStem: 334 20G<34.5 44> 352 18<148.266 205.221 382.311 410.684>
VStem: 33 17<144.928 353.593> 41 20<2.13647 248.682> 275 18<115.009 185.617> 459 20<13.1256 225.675>
LayerCount: 2
Back
Fore
SplineSet
57 144 m 1xac
 59 203 79 286 113 332 c 0
 131 357 155 368 179 368 c 0
 196 368 212 364 228 350 c 0
 240 341 249 327 257 314 c 0
 273 288 280 261 290 232 c 1
 296 280 326 332 364 355 c 0
 374 361 386 365 398 365 c 0
 412 365 426 360 435 348 c 0
 449 329 454 303 459 281 c 0
 475 212 479 143 479 65 c 0
 479 58 479 42 479 34 c 0
 479 26 479 3 473 -3 c 0
 466 -10 459 0 459 7 c 0
 459 9 459 12 459 14 c 0
 459 32 462 66 462 84 c 0
 462 150 456 220 440 284 c 0
 434 307 428 346 398 346 c 0
 380 346 366 335 353 322 c 0
 319 290 304 234 297 186 c 0
 294 167 295 151 293 132 c 0
 292 126 291 115 284 115 c 0
 277 115 275 127 275 142 c 0
 275 159 277 178 277 186 c 0
 276 236 258 286 227 323 c 0
 214 340 196 350 177 350 c 0
 136 350 116 306 104 277 c 0
 82 220 72 152 66 91 c 0
 64 68 61 36 61 13 c 0
 61 6 59.919921875 -4.8681640625 52 -6 c 0
 38 -8 40 14 40 31 c 0x5c
 40 43 39 61 39 65 c 0
 37 136 34 207 33 279 c 0
 33 289 33 298 33 308 c 0
 33 318 33 337 32 347 c 4
 31 353 30 365 39 365 c 4
 49 365 51 350 51 337 c 4
 51 329 50 311 50 307 c 0
 50 252 55 199 55 144 c 1
 57 144 l 1xac
EndSplineSet
EndChar

StartChar: G
Encoding: 71 71 91
Width: 526
VWidth: 0
Flags: W
HStem: 7 18<221.698 316.057> 331 20<263.235 353.359> 656 15<259.438 330.021>
VStem: 40 16<237.703 389.84> 380 16<581.149 619.48> 467 16<25.0981 300.763>
LayerCount: 2
Back
Fore
SplineSet
447 265 m 1
 452 254 455 241 455 227 c 0
 455 192 440 152 426 127 c 0
 395 72 348 7 275 7 c 0
 241 7 204 20 175 36 c 0
 115 67 74 134 56 199 c 0
 45 237 40 277 40 317 c 0
 40 400 64 482 115 549 c 0
 159 607 227 671 299 671 c 0
 320 671 340 665 361 653 c 0
 380 643 392 627 396 605 c 0
 397 599 401 584 393 581 c 0
 383 577 381 595 380 601 c 0
 373 632 347 644 320 652 c 0
 312 654 304 656 296 656 c 0
 232 656 164 585 129 539 c 0
 81 476 56 395 56 314 c 0
 56 249 72 184 106 129 c 0
 141 74 204 25 271 25 c 0
 277 25 283 25 290 26 c 0
 352 35 409 112 427 170 c 0
 436 199 431 226 435 255 c 0
 436 262 441 264 447 265 c 1
263 348 m 0
 268 350 274 351 280 351 c 0
 294 351 310 347 321 346 c 0
 358 340 394 336 431 331 c 0
 447 329 470 325 478 310 c 0
 482 302 483 291 483 280 c 0
 483 243 483 205 483 168 c 0
 483 132 485 95 485 59 c 0
 485 55 486 49 486 43 c 0
 486 35 485 27 479 25 c 0
 478 25 477 24 476 24 c 0
 470 24 469 35 469 44 c 2
 469 55 l 2
 469 90 467 125 467 160 c 2
 467 259 l 2
 467 265 468 272 468 279 c 0
 468 287 467 296 463 301 c 0
 455 313 434 313 421 315 c 0
 382 320 343 327 304 332 c 1
 297 332 l 2
 290 332 282 331 275 331 c 0
 271 331 267 332 263 333 c 0
 256 336 256 345 263 348 c 0
EndSplineSet
Validated: 1
EndChar

StartChar: K
Encoding: 75 75 92
Width: 378
VWidth: 0
Flags: W
HStem: 644 20G<39.5 47.5>
VStem: 34 18<546.797 663.993> 42 30<343.125 401.44> 64 17<8.09594 322.788>
LayerCount: 2
Back
Fore
SplineSet
43 664 m 0xc0
 52 664 52 656 52 648 c 0xc0
 52 630 53 614 55 596 c 0
 62 523 62 485 71 417 c 1
 120 487 191 541 246 607 c 0
 258 620 268 640 283 650 c 0
 289 654 300 652 298 642 c 0
 295 625 267 603 257 590 c 0
 215 540 167 496 123 448 c 0
 103 427 72 405 72 374 c 0xa0
 72 372 73 369 73 367 c 0
 76 336 119 300 139 279 c 0
 193 220 244 157 290 92 c 0
 304 73 316 53 330 35 c 0
 334 28 344 19 344 10 c 0
 344 -5 327 7 323 13 c 0
 308 34 293 56 279 76 c 0
 216 164 146 246 75 325 c 1
 81 285 83 242 83 199 c 0
 83 170 82 140 81 112 c 0
 81 100 82 71 82 47 c 0
 82 35 82 25 81 19 c 0
 80 12 73 1 65 8 c 0
 62 10 61 15 61 20 c 0
 61 27 63 36 63 41 c 0
 64 72 64 144 64 175 c 0x90
 64 229 64 284 58 338 c 0
 57 351 42 357 42 369 c 0xa0
 42 381 53 390 54 402 c 0
 54 408 55 415 55 421 c 0
 55 457 48 496 45 531 c 0
 39 578 38 578 35 627 c 0
 35 630 34 637 34 644 c 0
 34 654 36 664 43 664 c 0xc0
EndSplineSet
Validated: 1
EndChar

StartChar: X
Encoding: 88 88 93
Width: 454
VWidth: 0
Flags: W
HStem: 318 36<220.489 236.392>
VStem: 217 24<318.778 352.897>
LayerCount: 2
Back
Fore
SplineSet
229 354 m 1
 268 437 314 516 355 598 c 0
 366 619 374 641 385 662 c 0
 388 667 400 680 404 668 c 0
 406 661 398 652 396 646 c 0
 361 564 318 489 278 412 c 0
 267 392 241 360 241 336 c 0
 241 318 268 287 278 272 c 0
 312 218 345 163 378 108 c 0
 386 95 410 48 419 36 c 0
 423 31 430 25 430 18 c 0
 430 6 415 14 411 18 c 0
 398 31 373 83 364 98 c 0
 334 148 303 198 273 248 c 0
 259 270 240 293 231 318 c 1
 227 318 l 1
 220 292 202 268 190 244 c 0
 161 189 130 134 98 80 c 0
 86 61 76 37 61 20 c 0
 57 15 41 7 40 19 c 0
 39 26 49 33 53 38 c 0
 65 55 74 74 85 92 c 0
 121 150 154 211 185 272 c 0
 193 288 217 317 217 335 c 0
 217 356 192 384 183 402 c 0
 144 480 105 557 65 634 c 0
 61 641 54 652 56 660 c 0
 58 669 67 667 71 660 c 0
 83 638 94 614 106 592 c 0
 147 515 193 435 227 354 c 1
 229 354 l 1
EndSplineSet
Validated: 1
EndChar

StartChar: seven
Encoding: 55 55 94
Width: 404
VWidth: 0
Flags: W
HStem: 626 14<200.552 348.597> 631 21<41.1486 277.373>
VStem: 41 324
LayerCount: 2
Back
Fore
SplineSet
339 643 m 0xa0
 355 643 365 637 365 621 c 0
 365 613 362 603 360 596 c 0
 353 567 345 538 337 510 c 0
 305 397 278 283 246 170 c 0
 236 135 228 99 217 64 c 0
 215 57 212 36 201 36 c 0
 200 36 199 37 198 37 c 0
 195 38 194 41 194 44 c 0
 194 53 201 66 202 70 c 0
 213 105 222 141 231 176 c 0
 256 271 281 365 307 460 c 0
 322 514 342 570 349 626 c 1
 345 626 341 626 337 626 c 0xa0
 262 626 188 634 113 634 c 0
 91 634 70 632 49 631 c 0
 43 631 39 636 41 642 c 0
 44 650 58 652 73 652 c 0x60
 88 652 104 650 111 650 c 0
 175 650 238 644 301 640 c 1
 303 640 l 2
 312 640 326 643 339 643 c 0xa0
EndSplineSet
Validated: 1
EndChar

StartChar: exclam
Encoding: 33 33 95
Width: 122
VWidth: 0
Flags: W
HStem: 643 20G<58.5 63>
VStem: 39 34<13.7088 63.718> 40 16<220.1 453.524> 52 17<413.039 661.855>
LayerCount: 2
Back
Fore
SplineSet
56 662 m 0xa0
 57 662 58 663 59 663 c 0
 67 663 69 642 69 622 c 0x90
 69 607 68 593 68 586 c 0
 68 511 58 365 58 290 c 0
 58 273 56 255 56 238 c 0
 56 232 57 222 50 220 c 0
 41 217 40 230 40 236 c 0xa0
 40 256 43 276 43 296 c 0
 43 371 52 517 52 592 c 2
 52 644 l 2x90
 52 650 49 659 56 662 c 0xa0
65 63 m 0
 70 58 73 52 73 45 c 0
 73 29 59 11 49 11 c 0
 41 11 39 23 39 33 c 0xc0
 39 37 39 42 40 44 c 0xa0
 42 51 44 58 47 64 c 0
 53 74 60 68 65 63 c 0
EndSplineSet
Validated: 1
EndChar

StartChar: underscore
Encoding: 95 95 96
Width: 418
VWidth: 0
Flags: W
HStem: 12 15<44.9022 375.761>
LayerCount: 2
Back
Fore
SplineSet
199 10 m 0
 164 10 128 12 93 12 c 0
 84 12 75 12 66 12 c 0
 59 12 53 12 47 13 c 0
 40 14 36 24 44 28 c 0
 63 38 98 27 119 27 c 0
 158 26 197 25 236 25 c 2
 317 28 l 2
 328 29 340 30 352 30 c 0
 363 30 386 27 376 16 c 0
 371 11 360 13 353 13 c 0
 334 13 316 11 297 11 c 0
 265 11 232 10 199 10 c 0
EndSplineSet
Validated: 33
EndChar

StartChar: period
Encoding: 46 46 97
Width: 134
VWidth: 0
Flags: W
HStem: 25 63<42.5156 91.199>
VStem: 40 54<25.6492 85.6474>
LayerCount: 2
Back
Fore
SplineSet
66 87 m 0
 68 87 70 88 72 88 c 0
 87 88 94 76 94 62 c 0
 94 46 85 29 70 25 c 1
 66 25 l 2
 52 25 41 44 40 57 c 2
 40 59 l 2
 40 73 53 84 66 87 c 0
EndSplineSet
Validated: 1
EndChar

StartChar: q
Encoding: 113 113 98
Width: 357
VWidth: 0
Flags: W
HStem: 3 17<66.1633 128.739> 350 19<151.417 235.677>
VStem: 16 20<59.4905 178.937> 298 24<-31.4278 188.109 203.05 270.298> 310 21<-187.852 7.30435>
LayerCount: 2
Back
Fore
SplineSet
310 -156 m 2xe8
 310 -74 305 -69 303 11 c 0
 302 50 298 91 298 131 c 0
 298 151 299 170 302 189 c 1
 300 189 l 1
 285 144 251 101 218 70 c 0
 196 50 174 33 147 18 c 0
 128 7 111 3 96 3 c 0
 46 3 16 53 16 116 c 0
 16 198 57 299 124 348 c 0
 143 362 167 369 192 369 c 0
 245 369 300 338 315 286 c 1
 324 286 332 282 332 271 c 0
 332 256 326 243 324 229 c 0
 322 206 322 181 322 158 c 0xf0
 322 50 331 19 331 -89 c 2
 331 -164 l 2
 331 -172 332 -185 323 -188 c 0
 322 -188 321 -188 320 -188 c 0
 311 -188 310 -176 310 -166 c 2
 310 -156 l 2xe8
195 350 m 0
 94 350 44 210 37 128 c 0
 37 124 36 119 36 114 c 0
 36 76 48 20 91 20 c 2
 93 20 l 1
 171 25 239 119 273 181 c 0
 284 200 301 224 303 245 c 0
 305 255 300 261 297 270 c 0
 285 314 242 350 195 350 c 0
EndSplineSet
Validated: 1
EndChar

